<svg width="1518" height="1020" viewBox="0 0 1518 1020" fill="none" xmlns="http://www.w3.org/2000/svg">
<path d="M1452.95 129.211C1488.63 129.211 1517.55 100.287 1517.55 64.6058C1517.55 28.9251 1488.63 0 1452.95 0C1417.27 0 1388.34 28.9251 1388.34 64.6058C1388.34 100.287 1417.27 129.211 1452.95 129.211Z" fill="#D02A17"/>
<path d="M1449.33 133.758C1485.01 133.758 1513.94 104.833 1513.94 69.1527C1513.94 33.472 1485.01 4.54688 1449.33 4.54688C1413.65 4.54688 1384.73 33.472 1384.73 69.1527C1384.73 104.833 1413.65 133.758 1449.33 133.758Z" fill="#D02B17"/>
<path d="M1445.8 138.157C1481.48 138.157 1510.41 109.232 1510.41 73.5516C1510.41 37.8708 1481.48 8.94572 1445.8 8.94572C1410.12 8.94572 1381.19 37.8708 1381.19 73.5516C1381.19 109.232 1410.12 138.157 1445.8 138.157Z" fill="#D12C18"/>
<path d="M1442.27 142.567C1477.95 142.567 1506.87 113.642 1506.87 77.961C1506.87 42.2802 1477.95 13.3551 1442.27 13.3551C1406.59 13.3551 1377.66 42.2802 1377.66 77.961C1377.66 113.642 1406.59 142.567 1442.27 142.567Z" fill="#D12D18"/>
<path d="M1438.8 146.828C1474.48 146.828 1503.41 117.903 1503.41 82.2224C1503.41 46.5416 1474.48 17.6165 1438.8 17.6165C1403.12 17.6165 1374.19 46.5416 1374.19 82.2224C1374.19 117.903 1403.12 146.828 1438.8 146.828Z" fill="#D12E18"/>
<path d="M1435.33 151.015C1471.01 151.015 1499.94 122.09 1499.94 86.4093C1499.94 50.7285 1471.01 21.8039 1435.33 21.8039C1399.65 21.8039 1370.73 50.7285 1370.73 86.4093C1370.73 122.09 1399.65 151.015 1435.33 151.015Z" fill="#D12F19"/>
<path d="M1431.95 155.129C1467.63 155.129 1496.55 126.204 1496.55 90.523C1496.55 54.8423 1467.63 25.9172 1431.95 25.9172C1396.27 25.9172 1367.34 54.8423 1367.34 90.523C1367.34 126.204 1396.27 155.129 1431.95 155.129Z" fill="#D23019"/>
<path d="M1428.54 159.094C1464.22 159.094 1493.15 130.169 1493.15 94.4879C1493.15 58.8071 1464.22 29.8825 1428.54 29.8825C1392.86 29.8825 1363.94 58.8071 1363.94 94.4879C1363.94 130.169 1392.86 159.094 1428.54 159.094Z" fill="#D2311A"/>
<path d="M1425.16 162.996C1460.84 162.996 1489.76 134.071 1489.76 98.3902C1489.76 62.7094 1460.84 33.7844 1425.16 33.7844C1389.48 33.7844 1360.55 62.7094 1360.55 98.3902C1360.55 134.071 1389.48 162.996 1425.16 162.996Z" fill="#D2321A"/>
<path d="M1421.84 166.887C1457.52 166.887 1486.44 137.962 1486.44 102.282C1486.44 66.6007 1457.52 37.6757 1421.84 37.6757C1386.16 37.6757 1357.23 66.6007 1357.23 102.282C1357.23 137.962 1386.16 166.887 1421.84 166.887Z" fill="#D2331B"/>
<path d="M1418.58 170.641C1454.26 170.641 1483.19 141.716 1483.19 106.035C1483.19 70.3545 1454.26 41.4295 1418.58 41.4295C1382.9 41.4295 1353.98 70.3545 1353.98 106.035C1353.98 141.716 1382.9 170.641 1418.58 170.641Z" fill="#D3341B"/>
<path d="M1415.26 174.331C1450.94 174.331 1479.87 145.406 1479.87 109.726C1479.87 74.0449 1450.94 45.1198 1415.26 45.1198C1379.58 45.1198 1350.66 74.0449 1350.66 109.726C1350.66 145.406 1379.58 174.331 1415.26 174.331Z" fill="#D3351B"/>
<path d="M1412.09 177.863C1447.77 177.863 1476.7 148.938 1476.7 113.257C1476.7 77.5767 1447.77 48.6516 1412.09 48.6516C1376.41 48.6516 1347.48 77.5767 1347.48 113.257C1347.48 148.938 1376.41 177.863 1412.09 177.863Z" fill="#D3361C"/>
<path d="M1408.83 181.406C1444.51 181.406 1473.44 152.481 1473.44 116.8C1473.44 81.119 1444.51 52.1939 1408.83 52.1939C1373.15 52.1939 1344.23 81.119 1344.23 116.8C1344.23 152.481 1373.15 181.406 1408.83 181.406Z" fill="#D3361C"/>
<path d="M1405.66 184.863C1441.34 184.863 1470.27 155.938 1470.27 120.258C1470.27 84.5768 1441.34 55.6517 1405.66 55.6517C1369.98 55.6517 1341.05 84.5768 1341.05 120.258C1341.05 155.938 1369.98 184.863 1405.66 184.863Z" fill="#D4371D"/>
<path d="M1402.55 188.184C1438.23 188.184 1467.16 159.259 1467.16 123.578C1467.16 87.897 1438.23 58.972 1402.55 58.972C1366.87 58.972 1337.95 87.897 1337.95 123.578C1337.95 159.259 1366.87 188.184 1402.55 188.184Z" fill="#D4381D"/>
<path d="M1399.38 191.44C1435.06 191.44 1463.98 162.515 1463.98 126.835C1463.98 91.1539 1435.06 62.2288 1399.38 62.2288C1363.7 62.2288 1334.77 91.1539 1334.77 126.835C1334.77 162.515 1363.7 191.44 1399.38 191.44Z" fill="#D4391D"/>
<path d="M1396.35 194.686C1432.04 194.686 1460.96 165.762 1460.96 130.081C1460.96 94.4001 1432.04 65.4751 1396.35 65.4751C1360.67 65.4751 1331.75 94.4001 1331.75 130.081C1331.75 165.762 1360.67 194.686 1396.35 194.686Z" fill="#D53A1E"/>
<path d="M1393.25 197.785C1428.93 197.785 1457.85 168.86 1457.85 133.179C1457.85 97.4984 1428.93 68.5733 1393.25 68.5733C1357.57 68.5733 1328.64 97.4984 1328.64 133.179C1328.64 168.86 1357.57 197.785 1393.25 197.785Z" fill="#D53B1E"/>
<path d="M1390.22 200.82C1425.9 200.82 1454.83 171.895 1454.83 136.214C1454.83 100.533 1425.9 71.6081 1390.22 71.6081C1354.54 71.6081 1325.62 100.533 1325.62 136.214C1325.62 171.895 1354.54 200.82 1390.22 200.82Z" fill="#D53C1F"/>
<path d="M1387.18 203.78C1422.86 203.78 1451.78 174.855 1451.78 139.174C1451.78 103.493 1422.86 74.5688 1387.18 74.5688C1351.5 74.5688 1322.57 103.493 1322.57 139.174C1322.57 174.855 1351.5 203.78 1387.18 203.78Z" fill="#D53D1F"/>
<path d="M1384.22 206.667C1419.9 206.667 1448.82 177.742 1448.82 142.061C1448.82 106.381 1419.9 77.4556 1384.22 77.4556C1348.54 77.4556 1319.61 106.381 1319.61 142.061C1319.61 177.742 1348.54 206.667 1384.22 206.667Z" fill="#D63E20"/>
<path d="M1381.26 209.48C1416.94 209.48 1445.86 180.555 1445.86 144.874C1445.86 109.193 1416.94 80.2683 1381.26 80.2683C1345.57 80.2683 1316.65 109.193 1316.65 144.874C1316.65 180.555 1345.57 209.48 1381.26 209.48Z" fill="#D63F20"/>
<path d="M1378.38 212.229C1414.06 212.229 1442.98 183.304 1442.98 147.623C1442.98 111.943 1414.06 83.0176 1378.38 83.0176C1342.7 83.0176 1313.77 111.943 1313.77 147.623C1313.77 183.304 1342.7 212.229 1378.38 212.229Z" fill="#D64020"/>
<path d="M1375.42 214.894C1411.1 214.894 1440.02 185.969 1440.02 150.288C1440.02 114.607 1411.1 85.6822 1375.42 85.6822C1339.74 85.6822 1310.81 114.607 1310.81 150.288C1310.81 185.969 1339.74 214.894 1375.42 214.894Z" fill="#D74121"/>
<path d="M1372.52 217.495C1408.2 217.495 1437.13 188.57 1437.13 152.889C1437.13 117.209 1408.2 88.2835 1372.52 88.2835C1336.84 88.2835 1307.92 117.209 1307.92 152.889C1307.92 188.57 1336.84 217.495 1372.52 217.495Z" fill="#D74221"/>
<path d="M1369.71 220.022C1405.39 220.022 1434.31 191.097 1434.31 155.416C1434.31 119.735 1405.39 90.8107 1369.71 90.8107C1334.03 90.8107 1305.1 119.735 1305.1 155.416C1305.1 191.097 1334.03 220.022 1369.71 220.022Z" fill="#D74322"/>
<path d="M1366.9 222.476C1402.58 222.476 1431.5 193.551 1431.5 157.87C1431.5 122.189 1402.58 93.2639 1366.9 93.2639C1331.21 93.2639 1302.29 122.189 1302.29 157.87C1302.29 193.551 1331.21 222.476 1366.9 222.476Z" fill="#D84422"/>
<path d="M1364.08 224.928C1399.76 224.928 1428.69 196.003 1428.69 160.322C1428.69 124.642 1399.76 95.7171 1364.08 95.7171C1328.4 95.7171 1299.48 124.642 1299.48 160.322C1299.48 196.003 1328.4 224.928 1364.08 224.928Z" fill="#D84523"/>
<path d="M1361.27 227.244C1396.95 227.244 1425.88 198.319 1425.88 162.638C1425.88 126.957 1396.95 98.0328 1361.27 98.0328C1325.59 98.0328 1296.66 126.957 1296.66 162.638C1296.66 198.319 1325.59 227.244 1361.27 227.244Z" fill="#D84623"/>
<path d="M1358.52 229.475C1394.2 229.475 1423.13 200.55 1423.13 164.869C1423.13 129.189 1394.2 100.264 1358.52 100.264C1322.84 100.264 1293.91 129.189 1293.91 164.869C1293.91 200.55 1322.84 229.475 1358.52 229.475Z" fill="#D84724"/>
<path d="M1355.79 231.643C1391.47 231.643 1420.4 202.718 1420.4 167.038C1420.4 131.357 1391.47 102.432 1355.79 102.432C1320.11 102.432 1291.19 131.357 1291.19 167.038C1291.19 202.718 1320.11 231.643 1355.79 231.643Z" fill="#D94824"/>
<path d="M1353.11 233.811C1388.79 233.811 1417.71 204.886 1417.71 169.205C1417.71 133.524 1388.79 104.599 1353.11 104.599C1317.43 104.599 1288.5 133.524 1288.5 169.205C1288.5 204.886 1317.43 233.811 1353.11 233.811Z" fill="#D94925"/>
<path d="M1350.44 235.83C1386.12 235.83 1415.05 206.905 1415.05 171.224C1415.05 135.544 1386.12 106.619 1350.44 106.619C1314.76 106.619 1285.84 135.544 1285.84 171.224C1285.84 206.905 1314.76 235.83 1350.44 235.83Z" fill="#D94A25"/>
<path d="M1347.78 237.85C1383.46 237.85 1412.38 208.925 1412.38 173.245C1412.38 137.564 1383.46 108.639 1347.78 108.639C1312.1 108.639 1283.17 137.564 1283.17 173.245C1283.17 208.925 1312.1 237.85 1347.78 237.85Z" fill="#DA4B26"/>
<path d="M1345.09 239.722C1380.77 239.722 1409.7 210.797 1409.7 175.116C1409.7 139.435 1380.77 110.51 1345.09 110.51C1309.41 110.51 1280.49 139.435 1280.49 175.116C1280.49 210.797 1309.41 239.722 1345.09 239.722Z" fill="#DA4C26"/>
<path d="M1342.49 241.604C1378.17 241.604 1407.1 212.679 1407.1 176.998C1407.1 141.318 1378.17 112.393 1342.49 112.393C1306.81 112.393 1277.88 141.318 1277.88 176.998C1277.88 212.679 1306.81 241.604 1342.49 241.604Z" fill="#DA4D27"/>
<path d="M1339.91 243.412C1375.59 243.412 1404.52 214.487 1404.52 178.807C1404.52 143.126 1375.59 114.201 1339.91 114.201C1304.23 114.201 1275.3 143.126 1275.3 178.807C1275.3 214.487 1304.23 243.412 1339.91 243.412Z" fill="#DB4E27"/>
<path d="M1337.31 245.136C1372.99 245.136 1401.91 216.211 1401.91 180.53C1401.91 144.849 1372.99 115.924 1337.31 115.924C1301.63 115.924 1272.7 144.849 1272.7 180.53C1272.7 216.211 1301.63 245.136 1337.31 245.136Z" fill="#DB4F28"/>
<path d="M1334.77 246.796C1370.45 246.796 1399.38 217.871 1399.38 182.19C1399.38 146.509 1370.45 117.584 1334.77 117.584C1299.09 117.584 1270.17 146.509 1270.17 182.19C1270.17 217.871 1299.09 246.796 1334.77 246.796Z" fill="#DB5028"/>
<path d="M1332.25 248.466C1367.94 248.466 1396.86 219.541 1396.86 183.861C1396.86 148.18 1367.94 119.255 1332.25 119.255C1296.57 119.255 1267.65 148.18 1267.65 183.861C1267.65 219.541 1296.57 248.466 1332.25 248.466Z" fill="#DC5129"/>
<path d="M1329.72 249.979C1365.4 249.979 1394.32 221.054 1394.32 185.373C1394.32 149.692 1365.4 120.767 1329.72 120.767C1294.04 120.767 1265.11 149.692 1265.11 185.373C1265.11 221.054 1294.04 249.979 1329.72 249.979Z" fill="#DC5229"/>
<path d="M1327.2 251.491C1362.88 251.491 1391.81 222.566 1391.81 186.885C1391.81 151.204 1362.88 122.279 1327.2 122.279C1291.52 122.279 1262.59 151.204 1262.59 186.885C1262.59 222.566 1291.52 251.491 1327.2 251.491Z" fill="#DC532A"/>
<path d="M1324.75 252.939C1360.43 252.939 1389.35 224.014 1389.35 188.333C1389.35 152.653 1360.43 123.728 1324.75 123.728C1289.07 123.728 1260.14 152.653 1260.14 188.333C1260.14 224.014 1289.07 252.939 1324.75 252.939Z" fill="#DD542A"/>
<path d="M1322.29 254.303C1357.97 254.303 1386.9 225.378 1386.9 189.697C1386.9 154.017 1357.97 125.092 1322.29 125.092C1286.61 125.092 1257.69 154.017 1257.69 189.697C1257.69 225.378 1286.61 254.303 1322.29 254.303Z" fill="#DD552B"/>
<path d="M1319.84 255.678C1355.52 255.678 1384.45 226.753 1384.45 191.072C1384.45 155.391 1355.52 126.467 1319.84 126.467C1284.16 126.467 1255.23 155.391 1255.23 191.072C1255.23 226.753 1284.16 255.678 1319.84 255.678Z" fill="#DD562B"/>
<path d="M1317.39 256.905C1353.07 256.905 1381.99 227.98 1381.99 192.299C1381.99 156.618 1353.07 127.693 1317.39 127.693C1281.71 127.693 1252.78 156.618 1252.78 192.299C1252.78 227.98 1281.71 256.905 1317.39 256.905Z" fill="#DD572C"/>
<path d="M1315 258.132C1350.68 258.132 1379.6 229.206 1379.6 193.526C1379.6 157.845 1350.68 128.92 1315 128.92C1279.32 128.92 1250.39 157.845 1250.39 193.526C1250.39 229.206 1279.32 258.132 1315 258.132Z" fill="#DE582C"/>
<path d="M1312.61 259.294C1348.29 259.294 1377.21 230.369 1377.21 194.688C1377.21 159.008 1348.29 130.083 1312.61 130.083C1276.93 130.083 1248 159.008 1248 194.688C1248 230.369 1276.93 259.294 1312.61 259.294Z" fill="#DE592D"/>
<path d="M1310.24 260.447C1345.92 260.447 1374.84 231.522 1374.84 195.841C1374.84 160.161 1345.92 131.236 1310.24 131.236C1274.56 131.236 1245.63 160.161 1245.63 195.841C1245.63 231.522 1274.56 260.447 1310.24 260.447Z" fill="#DE5A2D"/>
<path d="M1307.93 261.451C1343.61 261.451 1372.54 232.527 1372.54 196.846C1372.54 161.165 1343.61 132.24 1307.93 132.24C1272.25 132.24 1243.33 161.165 1243.33 196.846C1243.33 232.527 1272.25 261.451 1307.93 261.451Z" fill="#DF5B2E"/>
<path d="M1305.54 262.467C1341.22 262.467 1370.15 233.542 1370.15 197.861C1370.15 162.18 1341.22 133.255 1305.54 133.255C1269.86 133.255 1240.94 162.18 1240.94 197.861C1240.94 233.542 1269.86 262.467 1305.54 262.467Z" fill="#DF5C2F"/>
<path d="M1303.24 263.471C1338.92 263.471 1367.84 234.546 1367.84 198.866C1367.84 163.185 1338.92 134.26 1303.24 134.26C1267.56 134.26 1238.63 163.185 1238.63 198.866C1238.63 234.546 1267.56 263.471 1303.24 263.471Z" fill="#DF5D2F"/>
<path d="M1300.91 264.339C1336.59 264.339 1365.52 235.414 1365.52 199.733C1365.52 164.052 1336.59 135.127 1300.91 135.127C1265.23 135.127 1236.31 164.052 1236.31 199.733C1236.31 235.414 1265.23 264.339 1300.91 264.339Z" fill="#E05E30"/>
<path d="M1298.69 265.206C1334.37 265.206 1363.3 236.281 1363.3 200.6C1363.3 164.919 1334.37 135.994 1298.69 135.994C1263.01 135.994 1234.09 164.919 1234.09 200.6C1234.09 236.281 1263.01 265.206 1298.69 265.206Z" fill="#E05F30"/>
<path d="M1296.37 265.998C1332.05 265.998 1360.97 237.073 1360.97 201.392C1360.97 165.712 1332.05 136.787 1296.37 136.787C1260.69 136.787 1231.76 165.712 1231.76 201.392C1231.76 237.073 1260.69 265.998 1296.37 265.998Z" fill="#E06031"/>
<path d="M1294.15 266.791C1329.83 266.791 1358.75 237.867 1358.75 202.186C1358.75 166.505 1329.83 137.58 1294.15 137.58C1258.46 137.58 1229.54 166.505 1229.54 202.186C1229.54 237.867 1258.46 266.791 1294.15 266.791Z" fill="#E16031"/>
<path d="M1291.9 267.521C1327.58 267.521 1356.51 238.596 1356.51 202.916C1356.51 167.235 1327.58 138.31 1291.9 138.31C1256.22 138.31 1227.3 167.235 1227.3 202.916C1227.3 238.596 1256.22 267.521 1291.9 267.521Z" fill="#E16132"/>
<path d="M1289.66 268.166C1325.34 268.166 1354.27 239.241 1354.27 203.561C1354.27 167.88 1325.34 138.955 1289.66 138.955C1253.98 138.955 1225.06 167.88 1225.06 203.561C1225.06 239.241 1253.98 268.166 1289.66 268.166Z" fill="#E16233"/>
<path d="M1287.42 268.748C1323.1 268.748 1352.03 239.822 1352.03 204.142C1352.03 168.461 1323.1 139.536 1287.42 139.536C1251.74 139.536 1222.81 168.461 1222.81 204.142C1222.81 239.822 1251.74 268.748 1287.42 268.748Z" fill="#E26333"/>
<path d="M1285.26 269.319C1320.94 269.319 1349.87 240.394 1349.87 204.713C1349.87 169.032 1320.94 140.107 1285.26 140.107C1249.58 140.107 1220.66 169.032 1220.66 204.713C1220.66 240.394 1249.58 269.319 1285.26 269.319Z" fill="#E26434"/>
<path d="M1283.08 269.901C1318.77 269.901 1347.69 240.976 1347.69 205.295C1347.69 169.614 1318.77 140.689 1283.08 140.689C1247.4 140.689 1218.48 169.614 1218.48 205.295C1218.48 240.976 1247.4 269.901 1283.08 269.901Z" fill="#E26534"/>
<path d="M1280.86 270.408C1316.55 270.408 1345.47 241.483 1345.47 205.802C1345.47 170.122 1316.55 141.196 1280.86 141.196C1245.18 141.196 1216.26 170.122 1216.26 205.802C1216.26 241.483 1245.18 270.408 1280.86 270.408Z" fill="#E36635"/>
<path d="M1278.77 270.842C1314.45 270.842 1343.38 241.917 1343.38 206.236C1343.38 170.555 1314.45 141.63 1278.77 141.63C1243.09 141.63 1214.16 170.555 1214.16 206.236C1214.16 241.917 1243.09 270.842 1278.77 270.842Z" fill="#E36736"/>
<path d="M1276.59 271.201C1312.27 271.201 1341.2 242.276 1341.2 206.595C1341.2 170.915 1312.27 141.99 1276.59 141.99C1240.91 141.99 1211.99 170.915 1211.99 206.595C1211.99 242.276 1240.91 271.201 1276.59 271.201Z" fill="#E36836"/>
<path d="M1274.44 271.635C1310.12 271.635 1339.04 242.71 1339.04 207.029C1339.04 171.348 1310.12 142.423 1274.44 142.423C1238.75 142.423 1209.83 171.348 1209.83 207.029C1209.83 242.71 1238.75 271.635 1274.44 271.635Z" fill="#E46937"/>
<path d="M1272.34 271.92C1308.02 271.92 1336.95 242.995 1336.95 207.314C1336.95 171.633 1308.02 142.709 1272.34 142.709C1236.66 142.709 1207.74 171.633 1207.74 207.314C1207.74 242.995 1236.66 271.92 1272.34 271.92Z" fill="#E46A38"/>
<path d="M1270.16 272.205C1305.84 272.205 1334.77 243.281 1334.77 207.6C1334.77 171.919 1305.84 142.994 1270.16 142.994C1234.48 142.994 1205.56 171.919 1205.56 207.6C1205.56 243.281 1234.48 272.205 1270.16 272.205Z" fill="#E46B38"/>
<path d="M1268.07 272.428C1303.75 272.428 1332.68 243.503 1332.68 207.822C1332.68 172.141 1303.75 143.216 1268.07 143.216C1232.39 143.216 1203.46 172.141 1203.46 207.822C1203.46 243.503 1232.39 272.428 1268.07 272.428Z" fill="#E46C39"/>
<path d="M1265.98 272.639C1301.66 272.639 1330.58 243.714 1330.58 208.033C1330.58 172.353 1301.66 143.428 1265.98 143.428C1230.3 143.428 1201.37 172.353 1201.37 208.033C1201.37 243.714 1230.3 272.639 1265.98 272.639Z" fill="#E56D39"/>
<path d="M1263.88 272.861C1299.56 272.861 1328.49 243.936 1328.49 208.256C1328.49 172.575 1299.56 143.65 1263.88 143.65C1228.2 143.65 1199.28 172.575 1199.28 208.256C1199.28 243.936 1228.2 272.861 1263.88 272.861Z" fill="#E56E3A"/>
<path d="M1261.87 273.009C1297.55 273.009 1326.48 244.084 1326.48 208.404C1326.48 172.723 1297.55 143.798 1261.87 143.798C1226.19 143.798 1197.27 172.723 1197.27 208.404C1197.27 244.084 1226.19 273.009 1261.87 273.009Z" fill="#E56F3B"/>
<path d="M1259.78 273.073C1295.46 273.073 1324.39 244.148 1324.39 208.467C1324.39 172.786 1295.46 143.861 1259.78 143.861C1224.1 143.861 1195.17 172.786 1195.17 208.467C1195.17 244.148 1224.1 273.073 1259.78 273.073Z" fill="#E6703B"/>
<path d="M1257.75 273.146C1293.43 273.146 1322.35 244.222 1322.35 208.541C1322.35 172.86 1293.43 143.935 1257.75 143.935C1222.07 143.935 1193.14 172.86 1193.14 208.541C1193.14 244.222 1222.07 273.146 1257.75 273.146Z" fill="#E6703C"/>
<path d="M1255.66 273.146C1291.34 273.146 1320.26 244.222 1320.26 208.541C1320.26 172.86 1291.34 143.935 1255.66 143.935C1219.97 143.935 1191.05 172.86 1191.05 208.541C1191.05 244.222 1219.97 273.146 1255.66 273.146Z" fill="#E6713D"/>
<path d="M1253.65 273.146C1289.33 273.146 1318.25 244.222 1318.25 208.541C1318.25 172.86 1289.33 143.935 1253.65 143.935C1217.97 143.935 1189.04 172.86 1189.04 208.541C1189.04 244.222 1217.97 273.146 1253.65 273.146Z" fill="#E7723D"/>
<path d="M1251.62 273.146C1287.3 273.146 1316.22 244.222 1316.22 208.541C1316.22 172.86 1287.3 143.935 1251.62 143.935C1215.94 143.935 1187.01 172.86 1187.01 208.541C1187.01 244.222 1215.94 273.146 1251.62 273.146Z" fill="#E7733E"/>
<path d="M1249.61 273.073C1285.29 273.073 1314.21 244.148 1314.21 208.467C1314.21 172.786 1285.29 143.861 1249.61 143.861C1213.93 143.861 1185 172.786 1185 208.467C1185 244.148 1213.93 273.073 1249.61 273.073Z" fill="#E7743F"/>
<path d="M1247.58 273.009C1283.26 273.009 1312.18 244.084 1312.18 208.404C1312.18 172.723 1283.26 143.798 1247.58 143.798C1211.9 143.798 1182.97 172.723 1182.97 208.404C1182.97 244.084 1211.9 273.009 1247.58 273.009Z" fill="#E8753F"/>
<path d="M1245.55 272.861C1281.23 272.861 1310.15 243.936 1310.15 208.256C1310.15 172.575 1281.23 143.65 1245.55 143.65C1209.87 143.65 1180.94 172.575 1180.94 208.256C1180.94 243.936 1209.87 272.861 1245.55 272.861Z" fill="#E87640"/>
<path d="M1243.6 272.713C1279.28 272.713 1308.21 243.788 1308.21 208.107C1308.21 172.427 1279.28 143.502 1243.6 143.502C1207.92 143.502 1179 172.427 1179 208.107C1179 243.788 1207.92 272.713 1243.6 272.713Z" fill="#E87741"/>
<path d="M1241.59 272.502C1277.27 272.502 1306.2 243.577 1306.2 207.896C1306.2 172.215 1277.27 143.29 1241.59 143.29C1205.91 143.29 1176.99 172.215 1176.99 207.896C1176.99 243.577 1205.91 272.502 1241.59 272.502Z" fill="#E97841"/>
<path d="M1239.65 272.279C1275.33 272.279 1304.25 243.355 1304.25 207.674C1304.25 171.993 1275.33 143.068 1239.65 143.068C1203.97 143.068 1175.04 171.993 1175.04 207.674C1175.04 243.355 1203.97 272.279 1239.65 272.279Z" fill="#E97942"/>
<path d="M1237.62 272.068C1273.3 272.068 1302.22 243.143 1302.22 207.462C1302.22 171.782 1273.3 142.857 1237.62 142.857C1201.94 142.857 1173.01 171.782 1173.01 207.462C1173.01 243.143 1201.94 272.068 1237.62 272.068Z" fill="#E97A43"/>
<path d="M1235.67 271.782C1271.35 271.782 1300.28 242.858 1300.28 207.177C1300.28 171.496 1271.35 142.571 1235.67 142.571C1199.99 142.571 1171.06 171.496 1171.06 207.177C1171.06 242.858 1199.99 271.782 1235.67 271.782Z" fill="#EA7B43"/>
<path d="M1233.72 271.487C1269.41 271.487 1298.33 242.562 1298.33 206.881C1298.33 171.2 1269.41 142.275 1233.72 142.275C1198.04 142.275 1169.12 171.2 1169.12 206.881C1169.12 242.562 1198.04 271.487 1233.72 271.487Z" fill="#EA7C44"/>
<path d="M1231.69 271.201C1267.38 271.201 1296.3 242.276 1296.3 206.595C1296.3 170.915 1267.38 141.99 1231.69 141.99C1196.01 141.99 1167.09 170.915 1167.09 206.595C1167.09 242.276 1196.01 271.201 1231.69 271.201Z" fill="#EA7D45"/>
<path d="M1229.75 270.842C1265.43 270.842 1294.35 241.917 1294.35 206.236C1294.35 170.555 1265.43 141.63 1229.75 141.63C1194.07 141.63 1165.14 170.555 1165.14 206.236C1165.14 241.917 1194.07 270.842 1229.75 270.842Z" fill="#EB7E46"/>
<path d="M1227.8 270.482C1263.48 270.482 1292.41 241.557 1292.41 205.876C1292.41 170.196 1263.48 141.27 1227.8 141.27C1192.12 141.27 1163.2 170.196 1163.2 205.876C1163.2 241.557 1192.12 270.482 1227.8 270.482Z" fill="#EB7F46"/>
<path d="M1225.86 270.122C1261.54 270.122 1290.46 241.197 1290.46 205.516C1290.46 169.836 1261.54 140.911 1225.86 140.911C1190.18 140.911 1161.25 169.836 1161.25 205.516C1161.25 241.197 1190.18 270.122 1225.86 270.122Z" fill="#EB8047"/>
<path d="M1223.89 269.689C1259.57 269.689 1288.5 240.764 1288.5 205.083C1288.5 169.402 1259.57 140.477 1223.89 140.477C1188.21 140.477 1159.29 169.402 1159.29 205.083C1159.29 240.764 1188.21 269.689 1223.89 269.689Z" fill="#EC8048"/>
<path d="M1221.95 269.256C1257.63 269.256 1286.55 240.331 1286.55 204.65C1286.55 168.969 1257.63 140.044 1221.95 140.044C1186.26 140.044 1157.34 168.969 1157.34 204.65C1157.34 240.331 1186.26 269.256 1221.95 269.256Z" fill="#EC8148"/>
<path d="M1220 268.822C1255.68 268.822 1284.61 239.897 1284.61 204.216C1284.61 168.535 1255.68 139.61 1220 139.61C1184.32 139.61 1155.39 168.535 1155.39 204.216C1155.39 239.897 1184.32 268.822 1220 268.822Z" fill="#EC8249"/>
<path d="M1218.05 268.388C1253.73 268.388 1282.66 239.463 1282.66 203.783C1282.66 168.102 1253.73 139.177 1218.05 139.177C1182.37 139.177 1153.45 168.102 1153.45 203.783C1153.45 239.463 1182.37 268.388 1218.05 268.388Z" fill="#ED834A"/>
<path d="M1216.11 267.881C1251.79 267.881 1280.71 238.956 1280.71 203.275C1280.71 167.594 1251.79 138.669 1216.11 138.669C1180.43 138.669 1151.5 167.594 1151.5 203.275C1151.5 238.956 1180.43 267.881 1216.11 267.881Z" fill="#ED844B"/>
<path d="M1214.23 267.373C1249.91 267.373 1278.83 238.448 1278.83 202.767C1278.83 167.086 1249.91 138.162 1214.23 138.162C1178.55 138.162 1149.62 167.086 1149.62 202.767C1149.62 238.448 1178.55 267.373 1214.23 267.373Z" fill="#ED854B"/>
<path d="M1212.28 266.865C1247.96 266.865 1276.89 237.941 1276.89 202.26C1276.89 166.579 1247.96 137.654 1212.28 137.654C1176.6 137.654 1147.67 166.579 1147.67 202.26C1147.67 237.941 1176.6 266.865 1212.28 266.865Z" fill="#EE864C"/>
<path d="M1210.33 266.368C1246.02 266.368 1274.94 237.444 1274.94 201.763C1274.94 166.082 1246.02 137.157 1210.33 137.157C1174.65 137.157 1145.73 166.082 1145.73 201.763C1145.73 237.444 1174.65 266.368 1210.33 266.368Z" fill="#EE874D"/>
<path d="M1208.39 265.787C1244.07 265.787 1272.99 236.862 1272.99 201.181C1272.99 165.501 1244.07 136.576 1208.39 136.576C1172.71 136.576 1143.78 165.501 1143.78 201.181C1143.78 236.862 1172.71 265.787 1208.39 265.787Z" fill="#EE884D"/>
<path d="M1206.42 265.206C1242.1 265.206 1271.03 236.281 1271.03 200.6C1271.03 164.919 1242.1 135.994 1206.42 135.994C1170.74 135.994 1141.82 164.919 1141.82 200.6C1141.82 236.281 1170.74 265.206 1206.42 265.206Z" fill="#EE894E"/>
<path d="M1204.56 264.634C1240.24 264.634 1269.17 235.709 1269.17 200.028C1269.17 164.348 1240.24 135.423 1204.56 135.423C1168.88 135.423 1139.96 164.348 1139.96 200.028C1139.96 235.709 1168.88 264.634 1204.56 264.634Z" fill="#EF8A4F"/>
<path d="M1202.62 264.053C1238.3 264.053 1267.22 235.128 1267.22 199.447C1267.22 163.766 1238.3 134.841 1202.62 134.841C1166.93 134.841 1138.01 163.766 1138.01 199.447C1138.01 235.128 1166.93 264.053 1202.62 264.053Z" fill="#EF8A50"/>
<path d="M1200.65 263.471C1236.33 263.471 1265.25 234.546 1265.25 198.866C1265.25 163.185 1236.33 134.26 1200.65 134.26C1164.97 134.26 1136.04 163.185 1136.04 198.866C1136.04 234.546 1164.97 263.471 1200.65 263.471Z" fill="#EF8B50"/>
<path d="M1198.7 262.826C1234.38 262.826 1263.31 233.901 1263.31 198.22C1263.31 162.539 1234.38 133.615 1198.7 133.615C1163.02 133.615 1134.1 162.539 1134.1 198.22C1134.1 233.901 1163.02 262.826 1198.7 262.826Z" fill="#F08C51"/>
<path d="M1196.76 262.181C1232.44 262.181 1261.36 233.256 1261.36 197.576C1261.36 161.895 1232.44 132.97 1196.76 132.97C1161.08 132.97 1132.15 161.895 1132.15 197.576C1132.15 233.256 1161.08 262.181 1196.76 262.181Z" fill="#F08D52"/>
<path d="M1194.88 261.6C1230.56 261.6 1259.48 232.675 1259.48 196.994C1259.48 161.313 1230.56 132.388 1194.88 132.388C1159.19 132.388 1130.27 161.313 1130.27 196.994C1130.27 232.675 1159.19 261.6 1194.88 261.6Z" fill="#F08E53"/>
<path d="M1192.93 260.954C1228.61 260.954 1257.54 232.03 1257.54 196.349C1257.54 160.668 1228.61 131.743 1192.93 131.743C1157.25 131.743 1128.32 160.668 1128.32 196.349C1128.32 232.03 1157.25 260.954 1192.93 260.954Z" fill="#F18F53"/>
<path d="M1190.98 260.299C1226.66 260.299 1255.59 231.374 1255.59 195.693C1255.59 160.013 1226.66 131.088 1190.98 131.088C1155.3 131.088 1126.38 160.013 1126.38 195.693C1126.38 231.374 1155.3 260.299 1190.98 260.299Z" fill="#F19054"/>
<path d="M1189.04 259.654C1224.72 259.654 1253.64 230.729 1253.64 195.048C1253.64 159.368 1224.72 130.443 1189.04 130.443C1153.36 130.443 1124.43 159.368 1124.43 195.048C1124.43 230.729 1153.36 259.654 1189.04 259.654Z" fill="#F19155"/>
<path d="M1187.09 258.925C1222.77 258.925 1251.7 230 1251.7 194.319C1251.7 158.638 1222.77 129.713 1187.09 129.713C1151.41 129.713 1122.49 158.638 1122.49 194.319C1122.49 230 1151.41 258.925 1187.09 258.925Z" fill="#F29256"/>
<path d="M1185.13 258.279C1220.81 258.279 1249.73 229.355 1249.73 193.674C1249.73 157.993 1220.81 129.068 1185.13 129.068C1149.45 129.068 1120.52 157.993 1120.52 193.674C1120.52 229.355 1149.45 258.279 1185.13 258.279Z" fill="#F29356"/>
<path d="M1183.18 257.624C1218.86 257.624 1247.79 228.699 1247.79 193.018C1247.79 157.337 1218.86 128.412 1183.18 128.412C1147.5 128.412 1118.57 157.337 1118.57 193.018C1118.57 228.699 1147.5 257.624 1183.18 257.624Z" fill="#F29457"/>
<path d="M1181.23 256.905C1216.92 256.905 1245.84 227.98 1245.84 192.299C1245.84 156.618 1216.92 127.693 1181.23 127.693C1145.55 127.693 1116.63 156.618 1116.63 192.299C1116.63 227.98 1145.55 256.905 1181.23 256.905Z" fill="#F39558"/>
<path d="M1179.23 256.26C1214.91 256.26 1243.83 227.335 1243.83 191.654C1243.83 155.973 1214.91 127.048 1179.23 127.048C1143.54 127.048 1114.62 155.973 1114.62 191.654C1114.62 227.335 1143.54 256.26 1179.23 256.26Z" fill="#F39659"/>
<path d="M1177.26 255.54C1212.94 255.54 1241.86 226.616 1241.86 190.935C1241.86 155.254 1212.94 126.329 1177.26 126.329C1141.58 126.329 1112.65 155.254 1112.65 190.935C1112.65 226.616 1141.58 255.54 1177.26 255.54Z" fill="#F3975A"/>
<path d="M1185.99 258.565C1221.67 258.565 1250.6 229.64 1250.6 193.959C1250.6 158.278 1221.67 129.353 1185.99 129.353C1150.31 129.353 1121.39 158.278 1121.39 193.959C1121.39 229.64 1150.31 258.565 1185.99 258.565Z" fill="#F4985A"/>
<path d="M1171.42 253.447C1207.1 253.447 1236.03 224.522 1236.03 188.841C1236.03 153.161 1207.1 124.236 1171.42 124.236C1135.74 124.236 1106.82 153.161 1106.82 188.841C1106.82 224.522 1135.74 253.447 1171.42 253.447Z" fill="#F3975B"/>
<path d="M1167.45 252.147C1203.13 252.147 1232.05 223.222 1232.05 187.541C1232.05 151.86 1203.13 122.935 1167.45 122.935C1131.77 122.935 1102.84 151.86 1102.84 187.541C1102.84 223.222 1131.77 252.147 1167.45 252.147Z" fill="#F3975C"/>
<path d="M1163.55 250.772C1199.24 250.772 1228.16 221.847 1228.16 186.166C1228.16 150.485 1199.24 121.56 1163.55 121.56C1127.87 121.56 1098.95 150.485 1098.95 186.166C1098.95 221.847 1127.87 250.772 1163.55 250.772Z" fill="#F3975D"/>
<path d="M1159.52 249.397C1195.2 249.397 1224.12 220.472 1224.12 184.791C1224.12 149.111 1195.2 120.186 1159.52 120.186C1123.83 120.186 1094.91 149.111 1094.91 184.791C1094.91 220.472 1123.83 249.397 1159.52 249.397Z" fill="#F3975D"/>
<path d="M1155.54 248.097C1191.22 248.097 1220.15 219.172 1220.15 183.491C1220.15 147.81 1191.22 118.885 1155.54 118.885C1119.86 118.885 1090.93 147.81 1090.93 183.491C1090.93 219.172 1119.86 248.097 1155.54 248.097Z" fill="#F3965E"/>
<path d="M1151.5 246.733C1187.18 246.733 1216.11 217.808 1216.11 182.127C1216.11 146.446 1187.18 117.521 1151.5 117.521C1115.82 117.521 1086.89 146.446 1086.89 182.127C1086.89 217.808 1115.82 246.733 1151.5 246.733Z" fill="#F2965F"/>
<path d="M1147.38 245.506C1183.06 245.506 1211.98 216.581 1211.98 180.9C1211.98 145.219 1183.06 116.294 1147.38 116.294C1111.7 116.294 1082.77 145.219 1082.77 180.9C1082.77 216.581 1111.7 245.506 1147.38 245.506Z" fill="#F2965F"/>
<path d="M1143.27 244.279C1178.95 244.279 1207.88 215.354 1207.88 179.674C1207.88 143.993 1178.95 115.068 1143.27 115.068C1107.59 115.068 1078.67 143.993 1078.67 179.674C1078.67 215.354 1107.59 244.279 1143.27 244.279Z" fill="#F29660"/>
<path d="M1139.09 243.052C1174.77 243.052 1203.69 214.127 1203.69 178.447C1203.69 142.766 1174.77 113.841 1139.09 113.841C1103.41 113.841 1074.48 142.766 1074.48 178.447C1074.48 214.127 1103.41 243.052 1139.09 243.052Z" fill="#F29561"/>
<path d="M1134.9 241.89C1170.58 241.89 1199.5 212.965 1199.5 177.284C1199.5 141.603 1170.58 112.678 1134.9 112.678C1099.22 112.678 1070.29 141.603 1070.29 177.284C1070.29 212.965 1099.22 241.89 1134.9 241.89Z" fill="#F29562"/>
<path d="M1130.63 240.811C1166.31 240.811 1195.23 211.886 1195.23 176.205C1195.23 140.525 1166.31 111.599 1130.63 111.599C1094.95 111.599 1066.02 140.525 1066.02 176.205C1066.02 211.886 1094.95 240.811 1130.63 240.811Z" fill="#F19562"/>
<path d="M1126.38 239.722C1162.06 239.722 1190.98 210.797 1190.98 175.116C1190.98 139.435 1162.06 110.51 1126.38 110.51C1090.7 110.51 1061.77 139.435 1061.77 175.116C1061.77 210.797 1090.7 239.722 1126.38 239.722Z" fill="#F19463"/>
<path d="M1121.98 238.791C1157.66 238.791 1186.58 209.866 1186.58 174.186C1186.58 138.505 1157.66 109.58 1121.98 109.58C1086.3 109.58 1057.37 138.505 1057.37 174.186C1057.37 209.866 1086.3 238.791 1121.98 238.791Z" fill="#F19464"/>
<path d="M1117.58 237.85C1153.26 237.85 1182.18 208.925 1182.18 173.245C1182.18 137.564 1153.26 108.639 1117.58 108.639C1081.9 108.639 1052.97 137.564 1052.97 173.245C1052.97 208.925 1081.9 237.85 1117.58 237.85Z" fill="#F19464"/>
<path d="M1113.09 237.057C1148.78 237.057 1177.7 208.132 1177.7 172.451C1177.7 136.771 1148.78 107.846 1113.09 107.846C1077.41 107.846 1048.49 136.771 1048.49 172.451C1048.49 208.132 1077.41 237.057 1113.09 237.057Z" fill="#F19465"/>
<path d="M1108.61 236.338C1144.29 236.338 1173.22 207.413 1173.22 171.732C1173.22 136.052 1144.29 107.127 1108.61 107.127C1072.93 107.127 1044.01 136.052 1044.01 171.732C1044.01 207.413 1072.93 236.338 1108.61 236.338Z" fill="#F09366"/>
<path d="M1104 235.682C1139.68 235.682 1168.61 206.758 1168.61 171.077C1168.61 135.396 1139.68 106.471 1104 106.471C1068.32 106.471 1039.4 135.396 1039.4 171.077C1039.4 206.758 1068.32 235.682 1104 235.682Z" fill="#F09366"/>
<path d="M1099.39 235.112C1135.07 235.112 1164 206.187 1164 170.506C1164 134.825 1135.07 105.9 1099.39 105.9C1063.71 105.9 1034.79 134.825 1034.79 170.506C1034.79 206.187 1063.71 235.112 1099.39 235.112Z" fill="#F09367"/>
<path d="M1094.61 234.678C1130.29 234.678 1159.22 205.753 1159.22 170.072C1159.22 134.392 1130.29 105.466 1094.61 105.466C1058.93 105.466 1030.01 134.392 1030.01 170.072C1030.01 205.753 1058.93 234.678 1094.61 234.678Z" fill="#F09368"/>
<path d="M1089.85 234.318C1125.53 234.318 1154.46 205.394 1154.46 169.713C1154.46 134.032 1125.53 105.107 1089.85 105.107C1054.17 105.107 1025.25 134.032 1025.25 169.713C1025.25 205.394 1054.17 234.318 1089.85 234.318Z" fill="#F09268"/>
<path d="M1085.01 234.022C1120.69 234.022 1149.62 205.097 1149.62 169.416C1149.62 133.735 1120.69 104.811 1085.01 104.811C1049.33 104.811 1020.4 133.735 1020.4 169.416C1020.4 205.097 1049.33 234.022 1085.01 234.022Z" fill="#EF9269"/>
<path d="M1080.04 233.948C1115.72 233.948 1144.65 205.023 1144.65 169.342C1144.65 133.661 1115.72 104.737 1080.04 104.737C1044.36 104.737 1015.43 133.661 1015.43 169.342C1015.43 205.023 1044.36 233.948 1080.04 233.948Z" fill="#EF926A"/>
<path d="M1075.05 233.948C1110.73 233.948 1139.66 205.023 1139.66 169.342C1139.66 133.661 1110.73 104.737 1075.05 104.737C1039.37 104.737 1010.44 133.661 1010.44 169.342C1010.44 205.023 1039.37 233.948 1075.05 233.948Z" fill="#EF916A"/>
<path d="M1069.93 234.097C1105.61 234.097 1134.54 205.171 1134.54 169.491C1134.54 133.81 1105.61 104.885 1069.93 104.885C1034.25 104.885 1005.33 133.81 1005.33 169.491C1005.33 205.171 1034.25 234.097 1069.93 234.097Z" fill="#EF916B"/>
<path d="M1064.73 234.382C1100.41 234.382 1129.33 205.457 1129.33 169.776C1129.33 134.095 1100.41 105.17 1064.73 105.17C1029.05 105.17 1000.12 134.095 1000.12 169.776C1000.12 205.457 1029.05 234.382 1064.73 234.382Z" fill="#EF916B"/>
<path d="M1059.46 234.742C1095.14 234.742 1124.07 205.816 1124.07 170.136C1124.07 134.455 1095.14 105.53 1059.46 105.53C1023.78 105.53 994.857 134.455 994.857 170.136C994.857 205.816 1023.78 234.742 1059.46 234.742Z" fill="#EE916C"/>
<path d="M1054.11 235.323C1089.79 235.323 1118.72 206.398 1118.72 170.717C1118.72 135.036 1089.79 106.111 1054.11 106.111C1018.43 106.111 989.507 135.036 989.507 170.717C989.507 206.398 1018.43 235.323 1054.11 235.323Z" fill="#EE906D"/>
<path d="M1048.7 236.042C1084.38 236.042 1113.3 207.117 1113.3 171.436C1113.3 135.756 1084.38 106.831 1048.7 106.831C1013.02 106.831 984.093 135.756 984.093 171.436C984.093 207.117 1013.02 236.042 1048.7 236.042Z" fill="#EE906D"/>
<path d="M1043.16 236.909C1078.84 236.909 1107.76 207.984 1107.76 172.303C1107.76 136.623 1078.84 107.698 1043.16 107.698C1007.48 107.698 978.552 136.623 978.552 172.303C978.552 207.984 1007.48 236.909 1043.16 236.909Z" fill="#EE906E"/>
<path d="M1037.51 237.998C1073.19 237.998 1102.12 209.073 1102.12 173.393C1102.12 137.712 1073.19 108.787 1037.51 108.787C1001.83 108.787 972.905 137.712 972.905 173.393C972.905 209.073 1001.83 237.998 1037.51 237.998Z" fill="#EE8F6E"/>
<path d="M1031.82 239.151C1067.5 239.151 1096.43 210.226 1096.43 174.545C1096.43 138.864 1067.5 109.939 1031.82 109.939C996.141 109.939 967.216 138.864 967.216 174.545C967.216 210.226 996.141 239.151 1031.82 239.151Z" fill="#ED8F6F"/>
<path d="M1025.96 240.589C1061.64 240.589 1090.57 211.664 1090.57 175.983C1090.57 140.302 1061.64 111.377 1025.96 111.377C990.283 111.377 961.358 140.302 961.358 175.983C961.358 211.664 990.283 240.589 1025.96 240.589Z" fill="#ED8F70"/>
<path d="M1020.04 242.111C1055.72 242.111 1084.65 213.186 1084.65 177.505C1084.65 141.825 1055.72 112.9 1020.04 112.9C984.362 112.9 955.437 141.825 955.437 177.505C955.437 213.186 984.362 242.111 1020.04 242.111Z" fill="#ED8F70"/>
<path d="M1013.99 243.909C1049.67 243.909 1078.6 214.984 1078.6 179.303C1078.6 143.622 1049.67 114.698 1013.99 114.698C978.313 114.698 949.388 143.622 949.388 179.303C949.388 214.984 978.313 243.909 1013.99 243.909Z" fill="#ED8E71"/>
<path d="M1007.84 245.866C1043.52 245.866 1072.45 216.941 1072.45 181.26C1072.45 145.579 1043.52 116.654 1007.84 116.654C972.159 116.654 943.234 145.579 943.234 181.26C943.234 216.941 972.159 245.866 1007.84 245.866Z" fill="#ED8E71"/>
<path d="M1001.58 248.033C1037.26 248.033 1066.19 219.108 1066.19 183.427C1066.19 147.747 1037.26 118.822 1001.58 118.822C965.899 118.822 936.974 147.747 936.974 183.427C936.974 219.108 965.899 248.033 1001.58 248.033Z" fill="#EC8E72"/>
<path d="M995.214 250.412C1030.9 250.412 1059.82 221.487 1059.82 185.807C1059.82 150.126 1030.9 121.201 995.214 121.201C959.534 121.201 930.609 150.126 930.609 185.807C930.609 221.487 959.534 250.412 995.214 250.412Z" fill="#EC8D72"/>
<path d="M988.722 253.014C1024.4 253.014 1053.33 224.089 1053.33 188.408C1053.33 152.727 1024.4 123.802 988.722 123.802C953.041 123.802 924.116 152.727 924.116 188.408C924.116 224.089 953.041 253.014 988.722 253.014Z" fill="#EC8D73"/>
<path d="M982.081 255.752C1017.76 255.752 1046.69 226.827 1046.69 191.147C1046.69 155.466 1017.76 126.541 982.081 126.541C946.401 126.541 917.476 155.466 917.476 191.147C917.476 226.827 946.401 255.752 982.081 255.752Z" fill="#EC8D73"/>
<path d="M975.356 258.787C1011.04 258.787 1039.96 229.862 1039.96 194.181C1039.96 158.5 1011.04 129.575 975.356 129.575C939.675 129.575 910.75 158.5 910.75 194.181C910.75 229.862 939.675 258.787 975.356 258.787Z" fill="#EC8D74"/>
<path d="M968.504 262.107C1004.18 262.107 1033.11 233.182 1033.11 197.502C1033.11 161.821 1004.18 132.896 968.504 132.896C932.823 132.896 903.898 161.821 903.898 197.502C903.898 233.182 932.823 262.107 968.504 262.107Z" fill="#EB8C75"/>
<path d="M961.716 265.501C997.396 265.501 1026.32 236.577 1026.32 200.896C1026.32 165.215 997.396 136.29 961.716 136.29C926.035 136.29 897.11 165.215 897.11 200.896C897.11 236.577 926.035 265.501 961.716 265.501Z" fill="#EB8C75"/>
<path d="M956.238 268.388C991.919 268.388 1020.84 239.463 1020.84 203.783C1020.84 168.102 991.919 139.177 956.238 139.177C920.557 139.177 891.632 168.102 891.632 203.783C891.632 239.463 920.557 268.388 956.238 268.388Z" fill="#EB8C76"/>
<path d="M950.888 271.487C986.568 271.487 1015.49 242.562 1015.49 206.881C1015.49 171.2 986.568 142.275 950.888 142.275C915.207 142.275 886.282 171.2 886.282 206.881C886.282 242.562 915.207 271.487 950.888 271.487Z" fill="#EB8B76"/>
<path d="M945.833 274.67C981.514 274.67 1010.44 245.744 1010.44 210.064C1010.44 174.383 981.514 145.458 945.833 145.458C910.152 145.458 881.227 174.383 881.227 210.064C881.227 245.744 910.152 274.67 945.833 274.67Z" fill="#EB8B77"/>
<path d="M940.927 277.99C976.608 277.99 1005.53 249.065 1005.53 213.384C1005.53 177.703 976.608 148.778 940.927 148.778C905.246 148.778 876.321 177.703 876.321 213.384C876.321 249.065 905.246 277.99 940.927 277.99Z" fill="#EA8B77"/>
<path d="M936.232 281.448C971.913 281.448 1000.84 252.522 1000.84 216.842C1000.84 181.161 971.913 152.236 936.232 152.236C900.551 152.236 871.626 181.161 871.626 216.842C871.626 252.522 900.551 281.448 936.232 281.448Z" fill="#EA8B78"/>
<path d="M931.685 284.989C967.366 284.989 996.291 256.064 996.291 220.384C996.291 184.703 967.366 155.778 931.685 155.778C896.004 155.778 867.079 184.703 867.079 220.384C867.079 256.064 896.004 284.989 931.685 284.989Z" fill="#EA8A78"/>
<path d="M927.371 288.67C963.052 288.67 991.977 259.745 991.977 224.064C991.977 188.383 963.052 159.458 927.371 159.458C891.69 159.458 862.765 188.383 862.765 224.064C862.765 259.745 891.69 288.67 927.371 288.67Z" fill="#EA8A79"/>
<path d="M923.183 292.423C958.864 292.423 987.789 263.498 987.789 227.818C987.789 192.137 958.864 163.212 923.183 163.212C887.503 163.212 858.578 192.137 858.578 227.818C858.578 263.498 887.503 292.423 923.183 292.423Z" fill="#EA8A79"/>
<path d="M919.208 296.251C954.888 296.251 983.813 267.326 983.813 231.645C983.813 195.964 954.888 167.04 919.208 167.04C883.527 167.04 854.602 195.964 854.602 231.645C854.602 267.326 883.527 296.251 919.208 296.251Z" fill="#E9897A"/>
<path d="M915.38 300.216C951.06 300.216 979.985 271.292 979.985 235.611C979.985 199.93 951.06 171.005 915.38 171.005C879.699 171.005 850.774 199.93 850.774 235.611C850.774 271.292 879.699 300.216 915.38 300.216Z" fill="#E9897A"/>
<path d="M911.7 304.33C947.381 304.33 976.306 275.404 976.306 239.724C976.306 204.043 947.381 175.118 911.7 175.118C876.019 175.118 847.094 204.043 847.094 239.724C847.094 275.404 876.019 304.33 911.7 304.33Z" fill="#E9897B"/>
<path d="M908.168 308.517C943.849 308.517 972.774 279.592 972.774 243.911C972.774 208.231 943.849 179.306 908.168 179.306C872.487 179.306 843.562 208.231 843.562 243.911C843.562 279.592 872.487 308.517 908.168 308.517Z" fill="#E9897B"/>
<path d="M904.848 312.779C940.529 312.779 969.454 283.854 969.454 248.173C969.454 212.492 940.529 183.567 904.848 183.567C869.167 183.567 840.242 212.492 840.242 248.173C840.242 283.854 869.167 312.779 904.848 312.779Z" fill="#E9887C"/>
<path d="M901.676 317.114C937.356 317.114 966.281 288.189 966.281 252.508C966.281 216.827 937.356 187.902 901.676 187.902C865.995 187.902 837.07 216.827 837.07 252.508C837.07 288.189 865.995 317.114 901.676 317.114Z" fill="#E8887C"/>
<path d="M898.567 321.587C934.248 321.587 963.173 292.662 963.173 256.981C963.173 221.3 934.248 192.375 898.567 192.375C862.886 192.375 833.961 221.3 833.961 256.981C833.961 292.662 862.886 321.587 898.567 321.587Z" fill="#E8887D"/>
<path d="M895.67 326.134C931.35 326.134 960.275 297.209 960.275 261.528C960.275 225.847 931.35 196.922 895.67 196.922C859.989 196.922 831.064 225.847 831.064 261.528C831.064 297.209 859.989 326.134 895.67 326.134Z" fill="#E8877D"/>
<path d="M892.941 330.755C928.622 330.755 957.547 301.83 957.547 266.149C957.547 230.468 928.622 201.543 892.941 201.543C857.261 201.543 828.336 230.468 828.336 266.149C828.336 301.83 857.261 330.755 892.941 330.755Z" fill="#E8877E"/>
<path d="M890.256 335.449C925.936 335.449 954.861 306.525 954.861 270.844C954.861 235.163 925.936 206.238 890.256 206.238C854.575 206.238 825.65 235.163 825.65 270.844C825.65 306.525 854.575 335.449 890.256 335.449Z" fill="#E8877E"/>
<path d="M887.802 340.208C923.483 340.208 952.408 311.283 952.408 275.602C952.408 239.921 923.483 210.996 887.802 210.996C852.122 210.996 823.197 239.921 823.197 275.602C823.197 311.283 852.122 340.208 887.802 340.208Z" fill="#E7877E"/>
<path d="M885.434 345.04C921.115 345.04 950.04 316.115 950.04 280.435C950.04 244.754 921.115 215.829 885.434 215.829C849.753 215.829 820.828 244.754 820.828 280.435C820.828 316.115 849.753 345.04 885.434 345.04Z" fill="#E7867F"/>
<path d="M883.107 350.021C918.788 350.021 947.713 321.096 947.713 285.415C947.713 249.734 918.788 220.809 883.107 220.809C847.427 220.809 818.502 249.734 818.502 285.415C818.502 321.096 847.427 350.021 883.107 350.021Z" fill="#E7867F"/>
<path d="M881.014 355.012C916.695 355.012 945.62 326.087 945.62 290.406C945.62 254.725 916.695 225.8 881.014 225.8C845.333 225.8 816.408 254.725 816.408 290.406C816.408 326.087 845.333 355.012 881.014 355.012Z" fill="#E78680"/>
<path d="M879.005 360.056C914.685 360.056 943.61 331.131 943.61 295.45C943.61 259.769 914.685 230.844 879.005 230.844C843.324 230.844 814.399 259.769 814.399 295.45C814.399 331.131 843.324 360.056 879.005 360.056Z" fill="#E78580"/>
<path d="M877.059 365.184C912.74 365.184 941.665 336.259 941.665 300.578C941.665 264.898 912.74 235.972 877.059 235.972C841.378 235.972 812.453 264.898 812.453 300.578C812.453 336.259 841.378 365.184 877.059 365.184Z" fill="#E78581"/>
<path d="M875.24 370.387C910.921 370.387 939.846 341.462 939.846 305.781C939.846 270.1 910.921 241.175 875.24 241.175C839.56 241.175 810.635 270.1 810.635 305.781C810.635 341.462 839.56 370.387 875.24 370.387Z" fill="#E68581"/>
<path d="M873.591 375.652C909.271 375.652 938.196 346.727 938.196 311.046C938.196 275.366 909.271 246.441 873.591 246.441C837.91 246.441 808.985 275.366 808.985 311.046C808.985 346.727 837.91 375.652 873.591 375.652Z" fill="#E68582"/>
<path d="M871.92 380.918C907.601 380.918 936.526 351.993 936.526 316.313C936.526 280.632 907.601 251.707 871.92 251.707C836.239 251.707 807.314 280.632 807.314 316.313C807.314 351.993 836.239 380.918 871.92 380.918Z" fill="#E68482"/>
<path d="M870.419 386.258C906.099 386.258 935.024 357.333 935.024 321.653C935.024 285.972 906.099 257.047 870.419 257.047C834.738 257.047 805.813 285.972 805.813 321.653C805.813 357.333 834.738 386.258 870.419 386.258Z" fill="#E68483"/>
<path d="M868.959 391.672C904.64 391.672 933.565 362.747 933.565 327.066C933.565 291.386 904.64 262.461 868.959 262.461C833.278 262.461 804.354 291.386 804.354 327.066C804.354 362.747 833.278 391.672 868.959 391.672Z" fill="#E68483"/>
<path d="M867.585 397.16C903.265 397.16 932.19 368.235 932.19 332.554C932.19 296.874 903.265 267.949 867.585 267.949C831.904 267.949 802.979 296.874 802.979 332.554C802.979 368.235 831.904 397.16 867.585 397.16Z" fill="#E58383"/>
<path d="M866.358 402.648C902.039 402.648 930.964 373.723 930.964 338.042C930.964 302.362 902.039 273.437 866.358 273.437C830.677 273.437 801.752 302.362 801.752 338.042C801.752 373.723 830.677 402.648 866.358 402.648Z" fill="#E58384"/>
<path d="M865.131 408.21C900.812 408.21 929.737 379.285 929.737 343.604C929.737 307.924 900.812 278.999 865.131 278.999C829.451 278.999 800.526 307.924 800.526 343.604C800.526 379.285 829.451 408.21 865.131 408.21Z" fill="#E58384"/>
<path d="M864.053 413.762C899.734 413.762 928.659 384.837 928.659 349.156C928.659 313.475 899.734 284.55 864.053 284.55C828.372 284.55 799.447 313.475 799.447 349.156C799.447 384.837 828.372 413.762 864.053 413.762Z" fill="#E58385"/>
<path d="M862.974 419.397C898.655 419.397 927.58 390.472 927.58 354.791C927.58 319.111 898.655 290.186 862.974 290.186C827.294 290.186 798.369 319.111 798.369 354.791C798.369 390.472 827.294 419.397 862.974 419.397Z" fill="#E58285"/>
<path d="M861.959 425.023C897.64 425.023 926.565 396.098 926.565 360.417C926.565 324.737 897.64 295.811 861.959 295.811C826.278 295.811 797.353 324.737 797.353 360.417C797.353 396.098 826.278 425.023 861.959 425.023Z" fill="#E48286"/>
<path d="M861.029 430.733C896.709 430.733 925.634 401.808 925.634 366.127C925.634 330.446 896.709 301.522 861.029 301.522C825.348 301.522 796.423 330.446 796.423 366.127C796.423 401.808 825.348 430.733 861.029 430.733Z" fill="#E48286"/>
<path d="M860.162 436.432C895.842 436.432 924.767 407.508 924.767 371.827C924.767 336.146 895.842 307.221 860.162 307.221C824.481 307.221 795.556 336.146 795.556 371.827C795.556 407.508 824.481 436.432 860.162 436.432Z" fill="#E48186"/>
<path d="M859.294 442.206C894.975 442.206 923.9 413.281 923.9 377.6C923.9 341.92 894.975 312.994 859.294 312.994C823.614 312.994 794.689 341.92 794.689 377.6C794.689 413.281 823.614 442.206 859.294 442.206Z" fill="#E48187"/>
<path d="M858.491 447.906C894.172 447.906 923.096 418.981 923.096 383.3C923.096 347.619 894.172 318.694 858.491 318.694C822.81 318.694 793.885 347.619 793.885 383.3C793.885 418.981 822.81 447.906 858.491 447.906Z" fill="#E38187"/>
<path d="M857.772 453.679C893.453 453.679 922.378 424.754 922.378 389.073C922.378 353.392 893.453 324.467 857.772 324.467C822.091 324.467 793.166 353.392 793.166 389.073C793.166 424.754 822.091 453.679 857.772 453.679Z" fill="#E38088"/>
<path d="M857.053 459.526C892.734 459.526 921.659 430.601 921.659 394.92C921.659 359.24 892.734 330.315 857.053 330.315C821.372 330.315 792.447 359.24 792.447 394.92C792.447 430.601 821.372 459.526 857.053 459.526Z" fill="#E38088"/>
<path d="M856.397 465.31C892.078 465.31 921.003 436.386 921.003 400.705C921.003 365.024 892.078 336.099 856.397 336.099C820.716 336.099 791.791 365.024 791.791 400.705C791.791 436.386 820.716 465.31 856.397 465.31Z" fill="#E38088"/>
<path d="M855.763 471.158C891.444 471.158 920.368 442.233 920.368 406.552C920.368 370.872 891.444 341.946 855.763 341.946C820.082 341.946 791.157 370.872 791.157 406.552C791.157 442.233 820.082 471.158 855.763 471.158Z" fill="#E38089"/>
<path d="M855.107 476.932C890.788 476.932 919.713 448.007 919.713 412.326C919.713 376.645 890.788 347.72 855.107 347.72C819.426 347.72 790.501 376.645 790.501 412.326C790.501 448.007 819.426 476.932 855.107 476.932Z" fill="#E27F89"/>
<path d="M854.452 482.779C890.132 482.779 919.057 453.854 919.057 418.173C919.057 382.492 890.132 353.567 854.452 353.567C818.771 353.567 789.846 382.492 789.846 418.173C789.846 453.854 818.771 482.779 854.452 482.779Z" fill="#E27F8A"/>
<path d="M853.881 488.627C889.561 488.627 918.486 459.702 918.486 424.021C918.486 388.34 889.561 359.415 853.881 359.415C818.2 359.415 789.275 388.34 789.275 424.021C789.275 459.702 818.2 488.627 853.881 488.627Z" fill="#E27F8A"/>
<path d="M853.31 494.464C888.99 494.464 917.915 465.538 917.915 429.858C917.915 394.177 888.99 365.252 853.31 365.252C817.629 365.252 788.704 394.177 788.704 429.858C788.704 465.538 817.629 494.464 853.31 494.464Z" fill="#E27E8A"/>
<path d="M852.717 500.311C888.398 500.311 917.323 471.386 917.323 435.705C917.323 400.024 888.398 371.099 852.717 371.099C817.037 371.099 788.112 400.024 788.112 435.705C788.112 471.386 817.037 500.311 852.717 500.311Z" fill="#E27E8B"/>
<path d="M852.146 506.095C887.827 506.095 916.752 477.17 916.752 441.489C916.752 405.808 887.827 376.883 852.146 376.883C816.466 376.883 787.541 405.808 787.541 441.489C787.541 477.17 816.466 506.095 852.146 506.095Z" fill="#E27E8B"/>
<path d="M851.575 511.942C887.256 511.942 916.181 483.017 916.181 447.336C916.181 411.656 887.256 382.731 851.575 382.731C815.895 382.731 786.97 411.656 786.97 447.336C786.97 483.017 815.895 511.942 851.575 511.942Z" fill="#E17D8C"/>
<path d="M850.983 517.779C886.664 517.779 915.589 488.854 915.589 453.173C915.589 417.492 886.664 388.568 850.983 388.568C815.302 388.568 786.378 417.492 786.378 453.173C786.378 488.854 815.302 517.779 850.983 517.779Z" fill="#E17D8C"/>
<path d="M850.412 523.563C886.093 523.563 915.018 494.638 915.018 458.958C915.018 423.277 886.093 394.352 850.412 394.352C814.731 394.352 785.806 423.277 785.806 458.958C785.806 494.638 814.731 523.563 850.412 523.563Z" fill="#E17D8C"/>
<path d="M849.757 529.337C885.437 529.337 914.362 500.412 914.362 464.731C914.362 429.05 885.437 400.125 849.757 400.125C814.076 400.125 785.151 429.05 785.151 464.731C785.151 500.412 814.076 529.337 849.757 529.337Z" fill="#E17C8D"/>
<path d="M849.186 535.111C884.866 535.111 913.791 506.185 913.791 470.505C913.791 434.824 884.866 405.899 849.186 405.899C813.505 405.899 784.58 434.824 784.58 470.505C784.58 506.185 813.505 535.111 849.186 535.111Z" fill="#E17C8D"/>
<path d="M848.53 540.81C884.211 540.81 913.136 511.884 913.136 476.204C913.136 440.523 884.211 411.598 848.53 411.598C812.849 411.598 783.924 440.523 783.924 476.204C783.924 511.884 812.849 540.81 848.53 540.81Z" fill="#E07C8D"/>
<path d="M847.811 546.509C883.492 546.509 912.417 517.584 912.417 481.904C912.417 446.223 883.492 417.298 847.811 417.298C812.13 417.298 783.205 446.223 783.205 481.904C783.205 517.584 812.13 546.509 847.811 546.509Z" fill="#E07C8E"/>
<path d="M847.155 552.219C882.836 552.219 911.761 523.294 911.761 487.614C911.761 451.933 882.836 423.008 847.155 423.008C811.475 423.008 782.55 451.933 782.55 487.614C782.55 523.294 811.475 552.219 847.155 552.219Z" fill="#E07B8E"/>
<path d="M846.373 557.844C882.054 557.844 910.979 528.92 910.979 493.239C910.979 457.558 882.054 428.633 846.373 428.633C810.692 428.633 781.767 457.558 781.767 493.239C781.767 528.92 810.692 557.844 846.373 557.844Z" fill="#E07B8F"/>
<path d="M845.654 563.481C881.335 563.481 910.26 534.556 910.26 498.875C910.26 463.194 881.335 434.269 845.654 434.269C809.973 434.269 781.048 463.194 781.048 498.875C781.048 534.556 809.973 563.481 845.654 563.481Z" fill="#E07B8F"/>
<path d="M844.787 569.106C880.468 569.106 909.393 540.181 909.393 504.501C909.393 468.82 880.468 439.895 844.787 439.895C809.106 439.895 780.181 468.82 780.181 504.501C780.181 540.181 809.106 569.106 844.787 569.106Z" fill="#DF7A8F"/>
<path d="M843.92 574.594C879.601 574.594 908.525 545.669 908.525 509.988C908.525 474.307 879.601 445.383 843.92 445.383C808.239 445.383 779.314 474.307 779.314 509.988C779.314 545.669 808.239 574.594 843.92 574.594Z" fill="#DF7A90"/>
<path d="M842.989 580.156C878.67 580.156 907.595 551.231 907.595 515.55C907.595 479.87 878.67 450.945 842.989 450.945C807.308 450.945 778.383 479.87 778.383 515.55C778.383 551.231 807.308 580.156 842.989 580.156Z" fill="#DF7A90"/>
<path d="M842.038 585.57C877.718 585.57 906.643 556.645 906.643 520.964C906.643 485.284 877.718 456.359 842.038 456.359C806.357 456.359 777.432 485.284 777.432 520.964C777.432 556.645 806.357 585.57 842.038 585.57Z" fill="#DF7990"/>
<path d="M840.959 590.984C876.64 590.984 905.565 562.059 905.565 526.378C905.565 490.698 876.64 461.773 840.959 461.773C805.278 461.773 776.353 490.698 776.353 526.378C776.353 562.059 805.278 590.984 840.959 590.984Z" fill="#DF7991"/>
<path d="M839.88 596.398C875.561 596.398 904.486 567.473 904.486 531.792C904.486 496.112 875.561 467.187 839.88 467.187C804.2 467.187 775.275 496.112 775.275 531.792C775.275 567.473 804.2 596.398 839.88 596.398Z" fill="#DE7991"/>
<path d="M838.654 601.664C874.335 601.664 903.26 572.739 903.26 537.058C903.26 501.377 874.335 472.452 838.654 472.452C802.973 472.452 774.048 501.377 774.048 537.058C774.048 572.739 802.973 601.664 838.654 601.664Z" fill="#DE7891"/>
<path d="M837.427 606.93C873.108 606.93 902.033 578.005 902.033 542.324C902.033 506.643 873.108 477.718 837.427 477.718C801.746 477.718 772.821 506.643 772.821 542.324C772.821 578.005 801.746 606.93 837.427 606.93Z" fill="#DE7892"/>
<path d="M836.052 612.133C871.733 612.133 900.658 583.208 900.658 547.527C900.658 511.846 871.733 482.921 836.052 482.921C800.372 482.921 771.447 511.846 771.447 547.527C771.447 583.208 800.372 612.133 836.052 612.133Z" fill="#DE7892"/>
<path d="M834.678 617.261C870.359 617.261 899.284 588.336 899.284 552.655C899.284 516.974 870.359 488.049 834.678 488.049C798.997 488.049 770.072 516.974 770.072 552.655C770.072 588.336 798.997 617.261 834.678 617.261Z" fill="#DE7892"/>
<path d="M833.155 622.304C868.836 622.304 897.761 593.38 897.761 557.699C897.761 522.018 868.836 493.093 833.155 493.093C797.474 493.093 768.549 522.018 768.549 557.699C768.549 593.38 797.474 622.304 833.155 622.304Z" fill="#DE7793"/>
<path d="M831.569 627.359C867.25 627.359 896.175 598.434 896.175 562.753C896.175 527.072 867.25 498.148 831.569 498.148C795.888 498.148 766.963 527.072 766.963 562.753C766.963 598.434 795.888 627.359 831.569 627.359Z" fill="#DD7793"/>
<path d="M829.92 632.265C865.6 632.265 894.525 603.341 894.525 567.66C894.525 531.979 865.6 503.054 829.92 503.054C794.239 503.054 765.314 531.979 765.314 567.66C765.314 603.341 794.239 632.265 829.92 632.265Z" fill="#DD7793"/>
<path d="M828.101 637.109C863.782 637.109 892.707 608.184 892.707 572.503C892.707 536.822 863.782 507.897 828.101 507.897C792.42 507.897 763.495 536.822 763.495 572.503C763.495 608.184 792.42 637.109 828.101 637.109Z" fill="#DD7694"/>
<path d="M826.24 641.941C861.92 641.941 890.845 613.016 890.845 577.335C890.845 541.654 861.92 512.729 826.24 512.729C790.559 512.729 761.634 541.654 761.634 577.335C761.634 613.016 790.559 641.941 826.24 641.941Z" fill="#DD7694"/>
<path d="M824.209 646.636C859.89 646.636 888.815 617.711 888.815 582.03C888.815 546.349 859.89 517.424 824.209 517.424C788.529 517.424 759.604 546.349 759.604 582.03C759.604 617.711 788.529 646.636 824.209 646.636Z" fill="#DD7694"/>
<path d="M822.116 651.256C857.797 651.256 886.721 622.332 886.721 586.651C886.721 550.97 857.797 522.045 822.116 522.045C786.435 522.045 757.51 550.97 757.51 586.651C757.51 622.332 786.435 651.256 822.116 651.256Z" fill="#DC7595"/>
<path d="M819.874 655.803C855.555 655.803 884.48 626.878 884.48 591.197C884.48 555.517 855.555 526.592 819.874 526.592C784.193 526.592 755.268 555.517 755.268 591.197C755.268 626.878 784.193 655.803 819.874 655.803Z" fill="#DC7595"/>
<path d="M817.505 660.276C853.186 660.276 882.111 631.352 882.111 595.671C882.111 559.99 853.186 531.065 817.505 531.065C781.825 531.065 752.9 559.99 752.9 595.671C752.9 631.352 781.825 660.276 817.505 660.276Z" fill="#DC7595"/>
<path d="M815.052 664.612C850.733 664.612 879.658 635.687 879.658 600.006C879.658 564.325 850.733 535.4 815.052 535.4C779.372 535.4 750.447 564.325 750.447 600.006C750.447 635.687 779.372 664.612 815.052 664.612Z" fill="#DC7496"/>
<path d="M812.451 668.936C848.132 668.936 877.057 640.011 877.057 604.331C877.057 568.65 848.132 539.725 812.451 539.725C776.77 539.725 747.845 568.65 747.845 604.331C747.845 640.011 776.77 668.936 812.451 668.936Z" fill="#DC7496"/>
<path d="M809.702 673.124C845.383 673.124 874.308 644.199 874.308 608.518C874.308 572.838 845.383 543.912 809.702 543.912C774.021 543.912 745.096 572.838 745.096 608.518C745.096 644.199 774.021 673.124 809.702 673.124Z" fill="#DC7496"/>
<path d="M806.804 677.174C842.485 677.174 871.41 648.249 871.41 612.568C871.41 576.887 842.485 547.962 806.804 547.962C771.124 547.962 742.199 576.887 742.199 612.568C742.199 648.249 771.124 677.174 806.804 677.174Z" fill="#DB7396"/>
<path d="M803.865 681.139C839.546 681.139 868.471 652.214 868.471 616.534C868.471 580.853 839.546 551.928 803.865 551.928C768.184 551.928 739.259 580.853 739.259 616.534C739.259 652.214 768.184 681.139 803.865 681.139Z" fill="#DB7397"/>
<path d="M800.671 685.041C836.352 685.041 865.277 656.116 865.277 620.435C865.277 584.755 836.352 555.83 800.671 555.83C764.991 555.83 736.066 584.755 736.066 620.435C736.066 656.116 764.991 685.041 800.671 685.041Z" fill="#DB7397"/>
<path d="M797.351 688.858C833.032 688.858 861.957 659.933 861.957 624.253C861.957 588.572 833.032 559.647 797.351 559.647C761.67 559.647 732.745 588.572 732.745 624.253C732.745 659.933 761.67 688.858 797.351 688.858Z" fill="#DB7297"/>
<path d="M793.883 692.475C829.564 692.475 858.489 663.55 858.489 627.869C858.489 592.188 829.564 563.263 793.883 563.263C758.202 563.263 729.277 592.188 729.277 627.869C729.277 663.55 758.202 692.475 793.883 692.475Z" fill="#DB7298"/>
<path d="M790.288 696.081C825.969 696.081 854.893 667.156 854.893 631.475C854.893 595.794 825.969 566.869 790.288 566.869C754.607 566.869 725.682 595.794 725.682 631.475C725.682 667.156 754.607 696.081 790.288 696.081Z" fill="#DA7298"/>
<path d="M786.46 699.474C822.141 699.474 851.066 670.55 851.066 634.869C851.066 599.188 822.141 570.263 786.46 570.263C750.779 570.263 721.854 599.188 721.854 634.869C721.854 670.55 750.779 699.474 786.46 699.474Z" fill="#DA7198"/>
<path d="M782.484 702.869C818.165 702.869 847.09 673.944 847.09 638.263C847.09 602.583 818.165 573.658 782.484 573.658C746.803 573.658 717.878 602.583 717.878 638.263C717.878 673.944 746.803 702.869 782.484 702.869Z" fill="#DA7198"/>
<path d="M778.381 706.041C814.062 706.041 842.987 677.116 842.987 641.436C842.987 605.755 814.062 576.83 778.381 576.83C742.7 576.83 713.775 605.755 713.775 641.436C713.775 677.116 742.7 706.041 778.381 706.041Z" fill="#DA7199"/>
<path d="M774.109 709.15C809.79 709.15 838.715 680.225 838.715 644.544C838.715 608.864 809.79 579.939 774.109 579.939C738.428 579.939 709.503 608.864 709.503 644.544C709.503 680.225 738.428 709.15 774.109 709.15Z" fill="#DA7099"/>
<path d="M769.562 712.111C805.243 712.111 834.168 683.186 834.168 647.505C834.168 611.824 805.243 582.899 769.562 582.899C733.882 582.899 704.957 611.824 704.957 647.505C704.957 683.186 733.882 712.111 769.562 712.111Z" fill="#D97099"/>
<path d="M764.952 714.923C800.633 714.923 829.558 685.998 829.558 650.317C829.558 614.637 800.633 585.712 764.952 585.712C729.271 585.712 700.346 614.637 700.346 650.317C700.346 685.998 729.271 714.923 764.952 714.923Z" fill="#D97099"/>
<path d="M760.046 717.588C795.726 717.588 824.651 688.663 824.651 652.982C824.651 617.301 795.726 588.377 760.046 588.377C724.365 588.377 695.44 617.301 695.44 652.982C695.44 688.663 724.365 717.588 760.046 717.588Z" fill="#D96F9A"/>
<path d="M754.991 720.19C790.672 720.19 819.597 691.265 819.597 655.584C819.597 619.903 790.672 590.978 754.991 590.978C719.31 590.978 690.385 619.903 690.385 655.584C690.385 691.265 719.31 720.19 754.991 720.19Z" fill="#D96F9A"/>
<path d="M749.789 722.643C785.47 722.643 814.394 693.718 814.394 658.037C814.394 622.356 785.47 593.431 749.789 593.431C714.108 593.431 685.183 622.356 685.183 658.037C685.183 693.718 714.108 722.643 749.789 722.643Z" fill="#D96F9A"/>
<path d="M744.311 724.884C779.992 724.884 808.917 695.959 808.917 660.278C808.917 624.598 779.992 595.673 744.311 595.673C708.63 595.673 679.706 624.598 679.706 660.278C679.706 695.959 708.63 724.884 744.311 724.884Z" fill="#D86E9A"/>
<path d="M738.665 727.052C774.346 727.052 803.271 698.127 803.271 662.446C803.271 626.766 774.346 597.841 738.665 597.841C702.984 597.841 674.059 626.766 674.059 662.446C674.059 698.127 702.984 727.052 738.665 727.052Z" fill="#D86E9B"/>
<path d="M732.828 729.072C768.509 729.072 797.434 700.147 797.434 664.466C797.434 628.785 768.509 599.86 732.828 599.86C697.147 599.86 668.222 628.785 668.222 664.466C668.222 700.147 697.147 729.072 732.828 729.072Z" fill="#D86E9B"/>
<path d="M727.054 730.88C762.735 730.88 791.66 701.955 791.66 666.274C791.66 630.593 762.735 601.668 727.054 601.668C691.374 601.668 662.449 630.593 662.449 666.274C662.449 701.955 691.374 730.88 727.054 730.88Z" fill="#D86D9B"/>
<path d="M721.344 732.54C757.025 732.54 785.95 703.615 785.95 667.934C785.95 632.253 757.025 603.329 721.344 603.329C685.664 603.329 656.739 632.253 656.739 667.934C656.739 703.615 685.664 732.54 721.344 732.54Z" fill="#D86D9B"/>
<path d="M715.634 734.052C751.315 734.052 780.24 705.127 780.24 669.446C780.24 633.766 751.315 604.841 715.634 604.841C679.953 604.841 651.029 633.766 651.029 669.446C651.029 705.127 679.953 734.052 715.634 734.052Z" fill="#D86C9C"/>
<path d="M710.009 735.427C745.69 735.427 774.615 706.502 774.615 670.821C774.615 635.14 745.69 606.215 710.009 606.215C674.328 606.215 645.403 635.14 645.403 670.821C645.403 706.502 674.328 735.427 710.009 735.427Z" fill="#D76C9C"/>
<path d="M704.383 736.717C740.064 736.717 768.989 707.792 768.989 672.111C768.989 636.43 740.064 607.505 704.383 607.505C668.703 607.505 639.778 636.43 639.778 672.111C639.778 707.792 668.703 736.717 704.383 736.717Z" fill="#D76C9C"/>
<path d="M698.821 737.88C734.502 737.88 763.427 708.955 763.427 673.274C763.427 637.594 734.502 608.669 698.821 608.669C663.141 608.669 634.216 637.594 634.216 673.274C634.216 708.955 663.141 737.88 698.821 737.88Z" fill="#D76B9C"/>
<path d="M693.259 738.959C728.94 738.959 757.865 710.034 757.865 674.353C757.865 638.672 728.94 609.747 693.259 609.747C657.579 609.747 628.654 638.672 628.654 674.353C628.654 710.034 657.579 738.959 693.259 738.959Z" fill="#D76B9D"/>
<path d="M687.782 739.9C723.463 739.9 752.388 710.975 752.388 675.294C752.388 639.613 723.463 610.688 687.782 610.688C652.101 610.688 623.176 639.613 623.176 675.294C623.176 710.975 652.101 739.9 687.782 739.9Z" fill="#D76B9D"/>
<path d="M682.22 740.767C717.901 740.767 746.826 711.842 746.826 676.161C746.826 640.48 717.901 611.555 682.22 611.555C646.539 611.555 617.614 640.48 617.614 676.161C617.614 711.842 646.539 740.767 682.22 740.767Z" fill="#D66A9D"/>
<path d="M676.743 741.411C712.423 741.411 741.348 712.487 741.348 676.806C741.348 641.125 712.423 612.2 676.743 612.2C641.062 612.2 612.137 641.125 612.137 676.806C612.137 712.487 641.062 741.411 676.743 741.411Z" fill="#D66A9D"/>
<path d="M671.329 742.068C707.009 742.068 735.934 713.142 735.934 677.462C735.934 641.781 707.009 612.856 671.329 612.856C635.648 612.856 606.723 641.781 606.723 677.462C606.723 713.142 635.648 742.068 671.329 742.068Z" fill="#D66A9E"/>
<path d="M665.83 742.565C701.511 742.565 730.436 713.639 730.436 677.959C730.436 642.278 701.511 613.353 665.83 613.353C630.149 613.353 601.224 642.278 601.224 677.959C601.224 713.639 630.149 742.565 665.83 742.565Z" fill="#D6699E"/>
<path d="M660.416 742.934C696.097 742.934 725.022 714.009 725.022 678.328C725.022 642.648 696.097 613.723 660.416 613.723C624.735 613.723 595.81 642.648 595.81 678.328C595.81 714.009 624.735 742.934 660.416 742.934Z" fill="#D6699E"/>
<path d="M655.002 743.22C690.683 743.22 719.608 714.295 719.608 678.614C719.608 642.934 690.683 614.008 655.002 614.008C619.321 614.008 590.396 642.934 590.396 678.614C590.396 714.295 619.321 743.22 655.002 743.22Z" fill="#D5699E"/>
<path d="M649.673 743.432C685.354 743.432 714.279 714.507 714.279 678.826C714.279 643.145 685.354 614.22 649.673 614.22C613.992 614.22 585.067 643.145 585.067 678.826C585.067 714.507 613.992 743.432 649.673 743.432Z" fill="#D5689F"/>
<path d="M644.322 743.506C680.003 743.506 708.928 714.581 708.928 678.9C708.928 643.219 680.003 614.294 644.322 614.294C608.642 614.294 579.717 643.219 579.717 678.9C579.717 714.581 608.642 743.506 644.322 743.506Z" fill="#D5689F"/>
<path d="M638.993 743.506C674.674 743.506 703.599 714.581 703.599 678.9C703.599 643.219 674.674 614.294 638.993 614.294C603.312 614.294 574.387 643.219 574.387 678.9C574.387 714.581 603.312 743.506 638.993 743.506Z" fill="#D5689F"/>
<path d="M633.642 743.432C669.323 743.432 698.248 714.507 698.248 678.826C698.248 643.145 669.323 614.22 633.642 614.22C597.962 614.22 569.037 643.145 569.037 678.826C569.037 714.507 597.962 743.432 633.642 743.432Z" fill="#D5679F"/>
<path d="M628.292 743.22C663.973 743.22 692.898 714.295 692.898 678.614C692.898 642.934 663.973 614.008 628.292 614.008C592.611 614.008 563.686 642.934 563.686 678.614C563.686 714.295 592.611 743.22 628.292 743.22Z" fill="#D567A0"/>
<path d="M623.026 742.934C658.707 742.934 687.632 714.009 687.632 678.328C687.632 642.648 658.707 613.723 623.026 613.723C587.345 613.723 558.42 642.648 558.42 678.328C558.42 714.009 587.345 742.934 623.026 742.934Z" fill="#D467A0"/>
<path d="M617.76 742.501C653.441 742.501 682.366 713.576 682.366 677.895C682.366 642.214 653.441 613.289 617.76 613.289C582.079 613.289 553.154 642.214 553.154 677.895C553.154 713.576 582.079 742.501 617.76 742.501Z" fill="#D466A0"/>
<path d="M612.494 742.068C648.175 742.068 677.1 713.142 677.1 677.462C677.1 641.781 648.175 612.856 612.494 612.856C576.813 612.856 547.888 641.781 547.888 677.462C547.888 713.142 576.813 742.068 612.494 742.068Z" fill="#D466A0"/>
<path d="M607.228 741.485C642.909 741.485 671.834 712.561 671.834 676.88C671.834 641.199 642.909 612.274 607.228 612.274C571.547 612.274 542.622 641.199 542.622 676.88C542.622 712.561 571.547 741.485 607.228 741.485Z" fill="#D466A0"/>
<path d="M602.026 740.841C637.707 740.841 666.631 711.916 666.631 676.235C666.631 640.554 637.707 611.629 602.026 611.629C566.345 611.629 537.42 640.554 537.42 676.235C537.42 711.916 566.345 740.841 602.026 740.841Z" fill="#D465A1"/>
<path d="M596.76 740.048C632.441 740.048 661.366 711.123 661.366 675.442C661.366 639.761 632.441 610.836 596.76 610.836C561.079 610.836 532.154 639.761 532.154 675.442C532.154 711.123 561.079 740.048 596.76 740.048Z" fill="#D365A1"/>
<path d="M591.557 739.244C627.238 739.244 656.163 710.319 656.163 674.638C656.163 638.957 627.238 610.033 591.557 610.033C555.877 610.033 526.952 638.957 526.952 674.638C526.952 710.319 555.877 739.244 591.557 739.244Z" fill="#D365A1"/>
<path d="M586.355 738.387C622.036 738.387 650.961 709.462 650.961 673.781C650.961 638.101 622.036 609.176 586.355 609.176C550.674 609.176 521.749 638.101 521.749 673.781C521.749 709.462 550.674 738.387 586.355 738.387Z" fill="#D364A1"/>
<path d="M581.174 737.372C616.854 737.372 645.779 708.448 645.779 672.767C645.779 637.086 616.854 608.161 581.174 608.161C545.493 608.161 516.568 637.086 516.568 672.767C516.568 708.448 545.493 737.372 581.174 737.372Z" fill="#D364A1"/>
<path d="M575.971 736.294C611.652 736.294 640.577 707.369 640.577 671.688C640.577 636.007 611.652 607.082 575.971 607.082C540.29 607.082 511.365 636.007 511.365 671.688C511.365 707.369 540.29 736.294 575.971 736.294Z" fill="#D364A2"/>
<path d="M570.769 735.13C606.449 735.13 635.374 706.206 635.374 670.525C635.374 634.844 606.449 605.919 570.769 605.919C535.088 605.919 506.163 634.844 506.163 670.525C506.163 706.206 535.088 735.13 570.769 735.13Z" fill="#D263A2"/>
<path d="M563.113 733.333C598.794 733.333 627.719 704.408 627.719 668.727C627.719 633.047 598.794 604.122 563.113 604.122C527.432 604.122 498.507 633.047 498.507 668.727C498.507 704.408 527.432 733.333 563.113 733.333Z" fill="#D263A2"/>
<path d="M554.59 731.091C590.271 731.091 619.196 702.167 619.196 666.486C619.196 630.805 590.271 601.88 554.59 601.88C518.909 601.88 489.984 630.805 489.984 666.486C489.984 702.167 518.909 731.091 554.59 731.091Z" fill="#D162A1"/>
<path d="M543.551 727.982C579.232 727.982 608.156 699.057 608.156 663.376C608.156 627.696 579.232 598.771 543.551 598.771C507.87 598.771 478.945 627.696 478.945 663.376C478.945 699.057 507.87 727.982 543.551 727.982Z" fill="#D161A0"/>
<path d="M532.575 724.525C568.256 724.525 597.181 695.6 597.181 659.919C597.181 624.238 568.256 595.313 532.575 595.313C496.894 595.313 467.969 624.238 467.969 659.919C467.969 695.6 496.894 724.525 532.575 724.525Z" fill="#D05F9F"/>
<path d="M521.62 720.771C557.301 720.771 586.226 691.846 586.226 656.165C586.226 620.484 557.301 591.56 521.62 591.56C485.939 591.56 457.014 620.484 457.014 656.165C457.014 691.846 485.939 720.771 521.62 720.771Z" fill="#CF5E9E"/>
<path d="M510.644 716.795C546.325 716.795 575.25 687.87 575.25 652.189C575.25 616.509 546.325 587.584 510.644 587.584C474.963 587.584 446.038 616.509 446.038 652.189C446.038 687.87 474.963 716.795 510.644 716.795Z" fill="#CE5D9D"/>
<path d="M499.583 712.544C535.264 712.544 564.189 683.62 564.189 647.939C564.189 612.258 535.264 583.333 499.583 583.333C463.903 583.333 434.978 612.258 434.978 647.939C434.978 683.62 463.903 712.544 499.583 712.544Z" fill="#CE5C9B"/>
<path d="M488.629 708.061C524.309 708.061 553.234 679.136 553.234 643.455C553.234 607.774 524.309 578.849 488.629 578.849C452.948 578.849 424.023 607.774 424.023 643.455C424.023 679.136 452.948 708.061 488.629 708.061Z" fill="#CD5B9A"/>
<path d="M477.505 703.303C513.185 703.303 542.11 674.378 542.11 638.697C542.11 603.016 513.185 574.091 477.505 574.091C441.824 574.091 412.899 603.016 412.899 638.697C412.899 674.378 441.824 703.303 477.505 703.303Z" fill="#CC5A99"/>
<path d="M466.465 698.396C502.146 698.396 531.071 669.471 531.071 633.791C531.071 598.11 502.146 569.185 466.465 569.185C430.785 569.185 401.86 598.11 401.86 633.791C401.86 669.471 430.785 698.396 466.465 698.396Z" fill="#CB5898"/>
<path d="M455.278 693.342C490.959 693.342 519.884 664.417 519.884 628.736C519.884 593.055 490.959 564.13 455.278 564.13C419.597 564.13 390.672 593.055 390.672 628.736C390.672 664.417 419.597 693.342 455.278 693.342Z" fill="#CB5797"/>
<path d="M444.09 688.065C479.771 688.065 508.696 659.14 508.696 623.46C508.696 587.779 479.771 558.854 444.09 558.854C408.41 558.854 379.485 587.779 379.485 623.46C379.485 659.14 408.41 688.065 444.09 688.065Z" fill="#CA5696"/>
<path d="M432.818 682.588C468.499 682.588 497.424 653.663 497.424 617.982C497.424 582.301 468.499 553.376 432.818 553.376C397.138 553.376 368.213 582.301 368.213 617.982C368.213 653.663 397.138 682.588 432.818 682.588Z" fill="#C95595"/>
<path d="M421.483 677.026C457.164 677.026 486.089 648.1 486.089 612.42C486.089 576.739 457.164 547.814 421.483 547.814C385.802 547.814 356.877 576.739 356.877 612.42C356.877 648.1 385.802 677.026 421.483 677.026Z" fill="#C85494"/>
<path d="M410.38 671.538C446.061 671.538 474.986 642.613 474.986 606.932C474.986 571.251 446.061 542.326 410.38 542.326C374.699 542.326 345.774 571.251 345.774 606.932C345.774 642.613 374.699 671.538 410.38 671.538Z" fill="#C75393"/>
<path d="M400.187 666.41C435.867 666.41 464.792 637.484 464.792 601.804C464.792 566.123 435.867 537.198 400.187 537.198C364.506 537.198 335.581 566.123 335.581 601.804C335.581 637.484 364.506 666.41 400.187 666.41Z" fill="#C75192"/>
<path d="M390.162 661.503C425.843 661.503 454.768 632.578 454.768 596.897C454.768 561.217 425.843 532.292 390.162 532.292C354.482 532.292 325.557 561.217 325.557 596.897C325.557 632.578 354.482 661.503 390.162 661.503Z" fill="#C65091"/>
<path d="M380.413 656.808C416.094 656.808 445.019 627.883 445.019 592.202C445.019 556.522 416.094 527.597 380.413 527.597C344.732 527.597 315.807 556.522 315.807 592.202C315.807 627.883 344.732 656.808 380.413 656.808Z" fill="#C54F90"/>
<path d="M370.812 652.409C406.492 652.409 435.417 623.484 435.417 587.804C435.417 552.123 406.492 523.198 370.812 523.198C335.131 523.198 306.206 552.123 306.206 587.804C306.206 623.484 335.131 652.409 370.812 652.409Z" fill="#C54E8E"/>
<path d="M361.295 648.296C396.976 648.296 425.901 619.371 425.901 583.69C425.901 548.009 396.976 519.084 361.295 519.084C325.614 519.084 296.689 548.009 296.689 583.69C296.689 619.371 325.614 648.296 361.295 648.296Z" fill="#C44D8D"/>
<path d="M351.82 644.616C387.501 644.616 416.426 615.691 416.426 580.01C416.426 544.33 387.501 515.405 351.82 515.405C316.14 515.405 287.215 544.33 287.215 580.01C287.215 615.691 316.14 644.616 351.82 644.616Z" fill="#C34C8C"/>
<path d="M342.367 641.37C378.048 641.37 406.973 612.445 406.973 576.764C406.973 541.083 378.048 512.158 342.367 512.158C306.686 512.158 277.761 541.083 277.761 576.764C277.761 612.445 306.686 641.37 342.367 641.37Z" fill="#C24B8B"/>
<path d="M332.914 638.546C368.595 638.546 397.52 609.622 397.52 573.941C397.52 538.26 368.595 509.335 332.914 509.335C297.233 509.335 268.308 538.26 268.308 573.941C268.308 609.622 297.233 638.546 332.914 638.546Z" fill="#C2498A"/>
<path d="M323.397 636.242C359.078 636.242 388.003 607.317 388.003 571.636C388.003 535.955 359.078 507.03 323.397 507.03C287.716 507.03 258.791 535.955 258.791 571.636C258.791 607.317 287.716 636.242 323.397 636.242Z" fill="#C14889"/>
<path d="M313.711 634.581C349.392 634.581 378.317 605.656 378.317 569.975C378.317 534.294 349.392 505.37 313.711 505.37C278.031 505.37 249.106 534.294 249.106 569.975C249.106 605.656 278.031 634.581 313.711 634.581Z" fill="#C04788"/>
<path d="M303.898 633.492C339.579 633.492 368.504 604.567 368.504 568.886C368.504 533.206 339.579 504.281 303.898 504.281C268.218 504.281 239.293 533.206 239.293 568.886C239.293 604.567 268.218 633.492 303.898 633.492Z" fill="#C04687"/>
<path d="M293.874 633.069C329.555 633.069 358.48 604.144 358.48 568.464C358.48 532.783 329.555 503.858 293.874 503.858C258.193 503.858 229.268 532.783 229.268 568.464C229.268 604.144 258.193 633.069 293.874 633.069Z" fill="#BF4586"/>
<path d="M283.617 633.355C319.298 633.355 348.223 604.43 348.223 568.749C348.223 533.068 319.298 504.143 283.617 504.143C247.937 504.143 219.012 533.068 219.012 568.749C219.012 604.43 247.937 633.355 283.617 633.355Z" fill="#BE4485"/>
<path d="M273.001 634.433C308.682 634.433 337.607 605.508 337.607 569.828C337.607 534.147 308.682 505.222 273.001 505.222C237.32 505.222 208.395 534.147 208.395 569.828C208.395 605.508 237.32 634.433 273.001 634.433Z" fill="#BD4384"/>
<path d="M262.109 636.389C297.79 636.389 326.715 607.464 326.715 571.783C326.715 536.103 297.79 507.178 262.109 507.178C226.429 507.178 197.504 536.103 197.504 571.783C197.504 607.464 226.429 636.389 262.109 636.389Z" fill="#BD4283"/>
<path d="M250.774 639.128C286.455 639.128 315.38 610.203 315.38 574.522C315.38 538.841 286.455 509.917 250.774 509.917C215.093 509.917 186.168 538.841 186.168 574.522C186.168 610.203 215.093 639.128 250.774 639.128Z" fill="#BC4183"/>
<path d="M239.079 642.808C274.76 642.808 303.685 613.883 303.685 578.202C303.685 542.521 274.76 513.596 239.079 513.596C203.398 513.596 174.473 542.521 174.473 578.202C174.473 613.883 203.398 642.808 239.079 642.808Z" fill="#BB3F82"/>
<path d="M226.813 647.503C262.494 647.503 291.419 618.578 291.419 582.897C291.419 547.216 262.494 518.291 226.813 518.291C191.132 518.291 162.207 547.216 162.207 582.897C162.207 618.578 191.132 647.503 226.813 647.503Z" fill="#BB3E81"/>
<path d="M214.103 653.203C249.784 653.203 278.709 624.277 278.709 588.597C278.709 552.916 249.784 523.991 214.103 523.991C178.422 523.991 149.497 552.916 149.497 588.597C149.497 624.277 178.422 653.203 214.103 653.203Z" fill="#BA3D80"/>
<path d="M200.737 659.917C236.418 659.917 265.343 630.992 265.343 595.311C265.343 559.63 236.418 530.705 200.737 530.705C165.056 530.705 136.131 559.63 136.131 595.311C136.131 630.992 165.056 659.917 200.737 659.917Z" fill="#B93C7F"/>
<path d="M186.822 667.784C222.502 667.784 251.427 638.859 251.427 603.178C251.427 567.498 222.502 538.573 186.822 538.573C151.141 538.573 122.216 567.498 122.216 603.178C122.216 638.859 151.141 667.784 186.822 667.784Z" fill="#B93B7E"/>
<path d="M172.229 676.804C207.91 676.804 236.835 647.879 236.835 612.198C236.835 576.517 207.91 547.592 172.229 547.592C136.549 547.592 107.624 576.517 107.624 612.198C107.624 647.879 136.549 676.804 172.229 676.804Z" fill="#B83A7D"/>
<path d="M159.519 685.253C195.2 685.253 224.125 656.328 224.125 620.647C224.125 584.966 195.2 556.041 159.519 556.041C123.838 556.041 94.9135 584.966 94.9135 620.647C94.9135 656.328 123.838 685.253 159.519 685.253Z" fill="#B7397C"/>
<path d="M152.604 690.592C188.285 690.592 217.209 661.667 217.209 625.986C217.209 590.306 188.285 561.381 152.604 561.381C116.923 561.381 87.998 590.306 87.998 625.986C87.998 661.667 116.923 690.592 152.604 690.592Z" fill="#B6387B"/>
<path d="M145.752 696.662C181.432 696.662 210.357 667.737 210.357 632.056C210.357 596.376 181.432 567.451 145.752 567.451C110.071 567.451 81.1459 596.376 81.1459 632.056C81.1459 667.737 110.071 696.662 145.752 696.662Z" fill="#B6377A"/>
<path d="M138.878 703.514C174.559 703.514 203.484 674.589 203.484 638.908C203.484 603.228 174.559 574.303 138.878 574.303C103.198 574.303 74.2727 603.228 74.2727 638.908C74.2727 674.589 103.198 703.514 138.878 703.514Z" fill="#B5367A"/>
<path d="M132.09 711.096C167.771 711.096 196.696 682.171 196.696 646.49C196.696 610.809 167.771 581.884 132.09 581.884C96.4091 581.884 67.4841 610.809 67.4841 646.49C67.4841 682.171 96.4091 711.096 132.09 711.096Z" fill="#B43579"/>
<path d="M125.449 719.249C161.13 719.249 190.055 690.323 190.055 654.643C190.055 618.962 161.13 590.037 125.449 590.037C89.7686 590.037 60.8436 618.962 60.8436 654.643C60.8436 690.323 89.7686 719.249 125.449 719.249Z" fill="#B43478"/>
<path d="M118.957 728.057C154.638 728.057 183.563 699.132 183.563 663.451C183.563 627.77 154.638 598.845 118.957 598.845C83.276 598.845 54.3511 627.77 54.3511 663.451C54.3511 699.132 83.276 728.057 118.957 728.057Z" fill="#B33377"/>
<path d="M112.612 737.372C148.293 737.372 177.218 708.448 177.218 672.767C177.218 637.086 148.293 608.161 112.612 608.161C76.9316 608.161 48.0066 637.086 48.0066 672.767C48.0066 708.448 76.9316 737.372 112.612 737.372Z" fill="#B23276"/>
<path d="M106.479 747.259C142.16 747.259 171.085 718.334 171.085 682.654C171.085 646.973 142.16 618.048 106.479 618.048C70.7986 618.048 41.8736 646.973 41.8736 682.654C41.8736 718.334 70.7986 747.259 106.479 747.259Z" fill="#B23175"/>
<path d="M100.621 757.58C136.302 757.58 165.227 728.655 165.227 692.974C165.227 657.293 136.302 628.368 100.621 628.368C64.9405 628.368 36.0155 657.293 36.0155 692.974C36.0155 728.655 64.9405 757.58 100.621 757.58Z" fill="#B13075"/>
<path d="M95.0593 768.27C130.74 768.27 159.665 739.345 159.665 703.664C159.665 667.984 130.74 639.059 95.0593 639.059C59.3785 639.059 30.4535 667.984 30.4535 703.664C30.4535 739.345 59.3785 768.27 95.0593 768.27Z" fill="#B02F74"/>
<path d="M89.8779 779.383C125.559 779.383 154.484 750.459 154.484 714.778C154.484 679.097 125.559 650.172 89.8779 650.172C54.1972 650.172 25.2722 679.097 25.2722 714.778C25.2722 750.459 54.1972 779.383 89.8779 779.383Z" fill="#B02E73"/>
<path d="M85.035 790.793C120.716 790.793 149.641 761.868 149.641 726.187C149.641 690.507 120.716 661.581 85.035 661.581C49.3542 661.581 20.4292 690.507 20.4292 726.187C20.4292 761.868 49.3542 790.793 85.035 790.793Z" fill="#AF2D72"/>
<path d="M80.6361 802.488C116.317 802.488 145.242 773.563 145.242 737.882C145.242 702.201 116.317 673.276 80.6361 673.276C44.9554 673.276 16.0304 702.201 16.0304 737.882C16.0304 773.563 44.9554 802.488 80.6361 802.488Z" fill="#AE2C71"/>
<path d="M76.6603 814.321C112.341 814.321 141.266 785.396 141.266 749.715C141.266 714.034 112.341 685.109 76.6603 685.109C40.9795 685.109 12.0545 714.034 12.0545 749.715C12.0545 785.396 40.9795 814.321 76.6603 814.321Z" fill="#AE2B71"/>
<path d="M73.192 826.449C108.873 826.449 137.798 797.524 137.798 761.843C137.798 726.163 108.873 697.237 73.192 697.237C37.5112 697.237 8.5862 726.163 8.5862 761.843C8.5862 797.524 37.5112 826.449 73.192 826.449Z" fill="#AD2A70"/>
<path d="M70.3158 838.652C105.997 838.652 134.922 809.727 134.922 774.046C134.922 738.365 105.997 709.44 70.3158 709.44C34.635 709.44 5.71003 738.365 5.71003 774.046C5.71003 809.727 34.635 838.652 70.3158 838.652Z" fill="#AC296F"/>
<path d="M67.926 850.918C103.607 850.918 132.532 821.993 132.532 786.312C132.532 750.631 103.607 721.706 67.926 721.706C32.2453 721.706 3.32028 750.631 3.32028 786.312C3.32028 821.993 32.2453 850.918 67.926 850.918Z" fill="#AC286E"/>
<path d="M66.1284 863.268C101.809 863.268 130.734 834.343 130.734 798.663C130.734 762.982 101.809 734.057 66.1284 734.057C30.4477 734.057 1.52268 762.982 1.52268 798.663C1.52268 834.343 30.4477 863.268 66.1284 863.268Z" fill="#AB276E"/>
<path d="M65.0287 875.534C100.709 875.534 129.634 846.609 129.634 810.928C129.634 775.247 100.709 746.323 65.0287 746.323C29.3479 746.323 0.422966 775.247 0.422966 810.928C0.422966 846.609 29.3479 875.534 65.0287 875.534Z" fill="#AA266D"/>
<path d="M64.6058 887.811C100.287 887.811 129.212 858.886 129.212 823.205C129.212 787.524 100.287 758.599 64.6058 758.599C28.925 758.599 0 787.524 0 823.205C0 858.886 28.925 887.811 64.6058 887.811Z" fill="#AA256C"/>
<path d="M64.9018 899.928C100.583 899.928 129.508 871.003 129.508 835.323C129.508 799.642 100.583 770.717 64.9018 770.717C29.2211 770.717 0.296076 799.642 0.296076 835.323C0.296076 871.003 29.2211 899.928 64.9018 899.928Z" fill="#A9246B"/>
<path d="M65.9804 911.92C101.661 911.92 130.586 882.995 130.586 847.314C130.586 811.633 101.661 782.708 65.9804 782.708C30.2996 782.708 1.37464 811.633 1.37464 847.314C1.37464 882.995 30.2996 911.92 65.9804 911.92Z" fill="#A8226A"/>
<path d="M67.8626 923.678C103.543 923.678 132.468 894.753 132.468 859.073C132.468 823.392 103.543 794.467 67.8626 794.467C32.1818 794.467 3.25683 823.392 3.25683 859.073C3.25683 894.753 32.1818 923.678 67.8626 923.678Z" fill="#A7216A"/>
<path d="M70.5273 935.162C106.208 935.162 135.133 906.237 135.133 870.556C135.133 834.875 106.208 805.95 70.5273 805.95C34.8465 805.95 5.92152 834.875 5.92152 870.556C5.92152 906.237 34.8465 935.162 70.5273 935.162Z" fill="#A72069"/>
<path d="M74.1436 946.423C109.824 946.423 138.749 917.498 138.749 881.818C138.749 846.137 109.824 817.212 74.1436 817.212C38.4629 817.212 9.53787 846.137 9.53787 881.818C9.53787 917.498 38.4629 946.423 74.1436 946.423Z" fill="#A61F68"/>
<path d="M78.6059 957.251C114.287 957.251 143.212 928.326 143.212 892.645C143.212 856.965 114.287 828.04 78.6059 828.04C42.9251 828.04 14.0002 856.965 14.0002 892.645C14.0002 928.326 42.9251 957.251 78.6059 957.251Z" fill="#A51E67"/>
<path d="M84.1045 967.72C119.785 967.72 148.71 938.795 148.71 903.114C148.71 867.433 119.785 838.508 84.1045 838.508C48.4237 838.508 19.4987 867.433 19.4987 903.114C19.4987 938.795 48.4237 967.72 84.1045 967.72Z" fill="#A51C67"/>
<path d="M90.5124 977.744C126.193 977.744 155.118 948.819 155.118 913.138C155.118 877.457 126.193 848.532 90.5124 848.532C54.8316 848.532 25.9066 877.457 25.9066 913.138C25.9066 948.819 54.8316 977.744 90.5124 977.744Z" fill="#A41B66"/>
<path d="M97.9566 987.345C133.637 987.345 162.562 958.42 162.562 922.739C162.562 887.059 133.637 858.134 97.9566 858.134C62.2758 858.134 33.3508 887.059 33.3508 922.739C33.3508 958.42 62.2758 987.345 97.9566 987.345Z" fill="#A31A65"/>
<path d="M106.543 996.302C142.224 996.302 171.149 967.377 171.149 931.696C171.149 896.015 142.224 867.09 106.543 867.09C70.862 867.09 41.937 896.015 41.937 931.696C41.937 967.377 70.862 996.302 106.543 996.302Z" fill="#A31865"/>
<path d="M116.144 1004.75C151.825 1004.75 180.75 975.825 180.75 940.144C180.75 904.464 151.825 875.539 116.144 875.539C80.4633 875.539 51.5383 904.464 51.5383 940.144C51.5383 975.825 80.4633 1004.75 116.144 1004.75Z" fill="#A21764"/>
<path d="M126.972 1012.54C162.653 1012.54 191.578 983.618 191.578 947.938C191.578 912.257 162.653 883.332 126.972 883.332C91.2912 883.332 62.3663 912.257 62.3663 947.938C62.3663 983.618 91.2912 1012.54 126.972 1012.54Z" fill="#A11663"/>
<path d="M138.963 1019.69C174.644 1019.69 203.569 990.766 203.569 955.086C203.569 919.405 174.644 890.48 138.963 890.48C103.282 890.48 74.3573 919.405 74.3573 955.086C74.3573 990.766 103.282 1019.69 138.963 1019.69Z" fill="#A11462"/>
</svg>
